<svg class="product--svg svg--advies" width="119" height="119" viewBox="0 0 119 119" xmlns="http://www.w3.org/2000/svg" xmlns:xlink="http://www.w3.org/1999/xlink">
    <title>advies</title>
    <g class="rotate">
      <path d="M63.23 13.898c-.268-.233-2.443-2.27-.565-5.026a4.974 4.974 0 0 1-3.17 1.133c-1.26 0-2.409-.47-3.288-1.239.455.91 1.067 2.884-.603 5.157h.04a46.223 46.223 0 0 1 3.957-.18c1.222 0 2.43.062 3.628.155" class="svg--advies-darkbrown" />
      <path d="M62.665 8.872a5.002 5.002 0 1 0-8.172-3.87c0 1.503.665 2.848 1.713 3.764.88.77 2.029 1.24 3.29 1.24a4.98 4.98 0 0 0 3.169-1.134" class="svg--advies-lightbrown" />
      <path d="M13.898 55.973c-.232.265-2.27 2.444-5.028.562a4.979 4.979 0 0 1 1.135 3.172c0 1.26-.47 2.409-1.239 3.288.91-.456 2.884-1.067 5.156.603v-.045a46.508 46.508 0 0 1-.18-3.955c0-1.22.062-2.428.156-3.625" class="svg--advies-darkbrown" />
      <path d="M8.87 2.223a5.002 5.002 0 1 0-3.868 8.173 4.984 4.984 0 0 0 3.764-1.714 4.976 4.976 0 0 0 1.239-3.289 4.978 4.978 0 0 0-1.135-3.17" class="svg--advies-lightbrown" />
      <path d="M55.972 105.303c.259.227 2.447 2.267.563 5.028a4.978 4.978 0 0 1 3.171-1.134c1.26 0 2.41.47 3.288 1.237-.455-.908-1.066-2.883.602-5.155h-.047c-1.302.11-2.618.18-3.948.18-1.223 0-2.43-.063-3.629-.156" class="svg--advies-darkbrown" />
      <path d="M56.535 110.332a5.003 5.003 0 1 0 8.174 3.868 4.992 4.992 0 0 0-1.714-3.765 4.985 4.985 0 0 0-3.289-1.238 4.98 4.98 0 0 0-3.171 1.135" class="svg--advies-lightbrown" />
      <path d="M110.436 56.207c-.91.457-2.885 1.067-5.158-.602v.041c.112 1.304.18 2.62.18 3.952a46.29 46.29 0 0 1-.155 3.632c.229-.263 2.267-2.446 5.029-.563a4.98 4.98 0 0 1-1.136-3.172c0-1.26.47-2.409 1.24-3.288" class="svg--advies-darkbrown" />
      <path d="M114.199 54.493a4.984 4.984 0 0 0-3.763 1.714 4.984 4.984 0 0 0-.105 6.46 5.004 5.004 0 1 0 3.868-8.174" class="svg--advies-lightbrown" />
      <path d="M29.847 24.72c-.377.023-3.332.106-3.95-3.157a4.984 4.984 0 0 1-1.44 3.043 4.978 4.978 0 0 1-3.202 1.45c.966.32 2.793 1.284 3.222 4.072a46.136 46.136 0 0 1 5.37-5.409" class="svg--advies-darkbrown" />
      <path d="M25.898 21.563a5.001 5.001 0 0 0-8.515-4.031 5 5 0 0 0 0 7.074 4.982 4.982 0 0 0 3.872 1.45 4.978 4.978 0 0 0 3.202-1.45 4.987 4.987 0 0 0 1.44-3.043" class="svg--advies-lightbrown" />
      <path d="M24.719 89.353c.024.364.115 3.334-3.158 3.951a4.99 4.99 0 0 1 4.494 4.642c.32-.964 1.284-2.794 4.073-3.221l-.01-.007a46.144 46.144 0 0 1-5.4-5.365" class="svg--advies-darkbrown" />
      <path d="M21.56 93.305a5.001 5.001 0 0 0-4.03 8.516 5.005 5.005 0 0 0 7.077 0 4.988 4.988 0 0 0 1.448-3.875 4.99 4.99 0 0 0-4.494-4.642" class="svg--advies-lightbrown" />
      <path d="M89.352 94.483c.364-.024 3.334-.115 3.953 3.157a4.979 4.979 0 0 1 1.44-3.044 4.978 4.978 0 0 1 3.201-1.449c-.965-.32-2.794-1.285-3.221-4.073l-.004.003a46.098 46.098 0 0 1-5.369 5.406" class="svg--advies-darkbrown" />
      <path d="M93.306 97.64a5.003 5.003 0 1 0 8.515-3.044 4.987 4.987 0 0 0-3.875-1.45 4.983 4.983 0 0 0-3.201 1.45 4.979 4.979 0 0 0-1.44 3.044" class="svg--advies-lightbrown" />
      <path d="M94.482 29.848c-.023-.375-.107-3.333 3.159-3.951a4.992 4.992 0 0 1-4.494-4.642c-.32.966-1.285 2.795-4.072 3.222a45.984 45.984 0 0 1 5.407 5.371" class="svg--advies-darkbrown" />
      <path d="M97.64 25.897a5.001 5.001 0 0 0 4.03-8.515 5.003 5.003 0 0 0-7.076 0 4.986 4.986 0 0 0-1.448 3.873 4.993 4.993 0 0 0 4.494 4.642M62.361 75.813c0-.841-.377-2.933-.969-4.643-.586.09-1.18.15-1.79.15-.612 0-1.208-.06-1.793-.152-.593 1.712-.969 3.804-.969 4.645l.92 19.097c0 .21.008.414.023.611a36.187 36.187 0 0 0 3.595.001c.012-.197.02-.4.02-.612l.963-19.097zM75.813 56.84c-.84 0-2.933.377-4.643.97.09.584.15 1.18.15 1.79 0 .611-.06 1.206-.15 1.792 1.71.593 3.802.969 4.643.969l19.097-.92c.21 0 .414-.007.612-.023a36.286 36.286 0 0 0 0-3.594 9.09 9.09 0 0 0-.612-.02l-19.097-.964zM56.84 43.388c0 .84.377 2.932.97 4.644.585-.09 1.18-.152 1.79-.152.612 0 1.206.062 1.792.152.593-1.712.97-3.803.97-4.644l-.92-19.097c0-.211-.008-.414-.023-.61a36.246 36.246 0 0 0-1.819-.048c-.594 0-1.186.017-1.777.046-.013.197-.02.4-.02.612l-.963 19.097zM43.389 62.36c.84 0 2.932-.375 4.643-.968a11.75 11.75 0 0 1-.15-1.791c0-.612.06-1.207.15-1.791-1.71-.593-3.803-.97-4.643-.97l-19.097.919a8.51 8.51 0 0 0-.612.023 34.921 34.921 0 0 0 0 3.595c.196.013.4.02.612.02l19.097.964zm29.628 6.752c-.594-.593-2.34-1.808-3.969-2.596a11.805 11.805 0 0 1-2.533 2.533c.79 1.628 2.003 3.374 2.597 3.967L83.266 85.87c.144.144.288.279.435.405a36.19 36.19 0 0 0 2.547-2.544 10.109 10.109 0 0 0-.41-.434l-12.82-14.185zm-3.904-22.928c-.595.595-1.807 2.34-2.598 3.968a11.76 11.76 0 0 1 2.534 2.535c1.628-.791 3.374-2.003 3.969-2.599L85.87 35.935c.144-.144.278-.29.406-.434a36.77 36.77 0 0 0-2.544-2.548c-.144.128-.29.264-.434.41l-14.185 12.82zm-22.929 3.905c.595.594 2.34 1.807 3.969 2.598.71-.97 1.565-1.823 2.533-2.534-.79-1.628-2.002-3.374-2.596-3.968L35.935 33.33a7.946 7.946 0 0 0-.435-.405 36.549 36.549 0 0 0-2.546 2.542c.129.146.263.29.409.436l12.821 14.185zm3.906 22.927c.593-.594 1.806-2.34 2.597-3.966a11.765 11.765 0 0 1-2.535-2.536c-1.628.79-3.374 2.004-3.968 2.598L33.33 83.266a9.45 9.45 0 0 0-.405.434 36.77 36.77 0 0 0 2.544 2.547c.144-.129.29-.264.434-.409l14.185-12.822z" class="svg--advies-lightbrown" />
      <path d="M59.6 68.636a9.036 9.036 0 1 1 .002-18.072 9.036 9.036 0 0 1-.001 18.072m6.913-18.483a11.62 11.62 0 0 0-5.121-2.121 11.801 11.801 0 0 0-1.792-.151c-.611 0-1.206.061-1.792.15a11.625 11.625 0 0 0-5.122 2.122 11.733 11.733 0 0 0-2.534 2.534 11.621 11.621 0 0 0-2.121 5.123 11.76 11.76 0 0 0-.151 1.79c0 .61.061 1.206.15 1.792a11.62 11.62 0 0 0 2.12 5.122c.712.97 1.565 1.824 2.536 2.536a11.628 11.628 0 0 0 5.122 2.119c.585.09 1.181.152 1.792.152.61 0 1.205-.062 1.792-.15a11.652 11.652 0 0 0 5.121-2.121 11.773 11.773 0 0 0 2.535-2.535 11.635 11.635 0 0 0 2.121-5.123c.09-.586.152-1.18.152-1.791 0-.612-.062-1.207-.152-1.791a11.631 11.631 0 0 0-2.121-5.123 11.733 11.733 0 0 0-2.535-2.534" fill="#925F36" />
      <path d="M59.6 102.628c-23.761 0-43.025-19.263-43.025-43.03 0-23.76 19.264-43.025 43.026-43.025 23.761 0 43.026 19.264 43.026 43.025 0 23.767-19.265 43.03-43.026 43.03m45.678-46.982a45.642 45.642 0 0 0-10.797-25.798 45.916 45.916 0 0 0-5.408-5.37 45.633 45.633 0 0 0-25.845-10.58 46.216 46.216 0 0 0-3.628-.156c-1.335 0-2.653.07-3.958.182a45.643 45.643 0 0 0-25.796 10.795 46.205 46.205 0 0 0-5.37 5.409 45.638 45.638 0 0 0-10.579 25.844 46.148 46.148 0 0 0-.156 3.626c0 1.334.07 2.65.18 3.955a45.652 45.652 0 0 0 10.797 25.8 46.144 46.144 0 0 0 5.4 5.364 45.645 45.645 0 0 0 25.853 10.586 46.81 46.81 0 0 0 3.629.156c1.33 0 2.646-.07 3.948-.18a45.638 45.638 0 0 0 25.804-10.796 46.16 46.16 0 0 0 5.369-5.406 45.639 45.639 0 0 0 10.58-25.847 45.91 45.91 0 0 0 .157-3.632c0-1.332-.069-2.648-.18-3.952" fill="#C99D66" />
      <path d="M59.6 97.75c-21.068 0-38.15-17.079-38.15-38.152 0-21.068 17.082-38.147 38.15-38.147 21.07 0 38.15 17.079 38.15 38.147 0 21.073-17.08 38.152-38.15 38.152m0-81.176c-23.761 0-43.025 19.264-43.025 43.024 0 23.767 19.264 43.03 43.026 43.03 23.761 0 43.026-19.263 43.026-43.03 0-23.76-19.265-43.024-43.026-43.024" class="svg--advies-lightbrown" />
      <path d="M95.568 59.598c0 .611-.016 1.218-.046 1.82-.43 8.564-3.867 16.348-9.274 22.313a36.393 36.393 0 0 1-2.548 2.544c-5.971 5.4-13.758 8.828-22.322 9.248a36.838 36.838 0 0 1-3.595-.001c-8.565-.428-16.348-3.867-22.313-9.276a36.77 36.77 0 0 1-2.544-2.546c-5.4-5.972-8.828-13.758-9.246-22.324a35.703 35.703 0 0 1 0-3.594c.427-8.563 3.866-16.347 9.274-22.313a36.164 36.164 0 0 1 2.547-2.543c5.972-5.4 13.758-8.828 22.323-9.248a36.277 36.277 0 0 1 3.596.002c8.563.429 16.347 3.866 22.313 9.273a36.561 36.561 0 0 1 2.542 2.548c5.401 5.971 8.83 13.759 9.247 22.322.029.59.046 1.18.046 1.775M59.6 21.451c-21.069 0-38.15 17.079-38.15 38.147 0 21.073 17.081 38.152 38.15 38.152 21.068 0 38.15-17.079 38.15-38.152 0-21.068-17.082-38.147-38.15-38.147" class="svg--advies-darkbrown" />
      <path d="M59.6 52.02c-4.179 0-7.58 3.4-7.58 7.58s3.401 7.58 7.58 7.58c4.18 0 7.581-3.4 7.581-7.58s-3.4-7.58-7.58-7.58" class="svg--advies-lightbrown" />
      <path d="M59.6 67.18c-4.179 0-7.58-3.4-7.58-7.579 0-4.18 3.401-7.58 7.58-7.58 4.18 0 7.581 3.4 7.581 7.58 0 4.179-3.4 7.58-7.58 7.58m0-16.616a9.036 9.036 0 1 0 9.035 9.036 9.035 9.035 0 0 0-9.035-9.036" class="svg--advies-darkbrown" />
    </g>
</svg>
