<?xml version="1.0" encoding="UTF-8"?>
<svg width="59px" height="58px" viewBox="0 0 59 58" version="1.1" xmlns="http://www.w3.org/2000/svg" xmlns:xlink="http://www.w3.org/1999/xlink">
    <!-- Generator: Sketch 41 (35326) - http://www.bohemiancoding.com/sketch -->
    <title>slack</title>
    <desc>Created with Sketch.</desc>
    <defs></defs>
    <g id="Page-2" stroke="none" stroke-width="1" fill="none" fill-rule="evenodd">
        <g id="slack" fill="#FFFFFF">
            <path d="M57.6634396,22.519816 C57.6634396,20.8200547 57.0810097,19.2545607 56.1070182,18.0083403 L56.1070182,7.39847436 C57.5435029,6.96168692 58.5919006,5.62631405 58.5919006,4.05064826 C58.5919006,2.12124447 57.0202625,0.551681735 55.0885747,0.551681735 C53.1567671,0.551681735 51.5852489,2.12124447 51.5852489,4.05064826 C51.5852489,5.62631405 52.6336466,6.96156726 54.0701312,7.39847436 L54.0701312,16.2094941 C52.9681753,15.5514409 51.6809826,15.1719743 50.3063234,15.1719743 C48.9817478,15.1719743 47.7391269,15.525114 46.6643694,16.1394884 L46.6643694,7.39847436 C48.1008541,6.96168692 49.1492518,5.62631405 49.1492518,4.05064826 C49.1492518,2.12124447 47.5776137,0.551681735 45.6459259,0.551681735 C43.7141183,0.551681735 42.1426001,2.12124447 42.1426001,4.05064826 C42.1426001,5.62631405 43.1909978,6.96156726 44.6274824,7.39847436 L44.6274824,17.8534902 C43.5794441,19.1234048 42.9492073,20.7494507 42.9492073,22.519816 L42.9492073,32.7538054 C41.7857854,30.1869313 40.1420176,27.8228941 38.0624757,25.7707112 C33.6129559,21.3798606 27.7309055,18.9617336 21.4999483,18.9617336 C16.4684779,18.9617336 11.7382271,20.918661 8.18038456,24.4719567 C4.62266183,28.0252524 2.66329633,32.7497367 2.66329633,37.7748266 C2.66329633,42.8875133 5.19502709,47.4205292 9.07194199,50.1897615 L0.853222671,55.9906576 C0.490896415,56.2463877 0.335973184,56.7068694 0.470287911,57.1292967 C0.604602638,57.5516043 0.997242566,57.8385676 1.44092449,57.8385676 L43.6219791,57.8385676 C48.0768907,57.8385676 51.5868065,56.5764315 54.0541956,54.0872218 C57.6727853,50.4368755 57.6654764,45.5087165 57.6633197,45.310786 L57.6633197,22.519816 L57.6634396,22.519816 Z M53.6221359,4.05064826 C53.6221359,3.24301034 54.2800504,2.58603417 55.0885747,2.58603417 C55.8972189,2.58603417 56.5550136,3.24301034 56.5550136,4.05064826 C56.5550136,4.85828617 55.8970991,5.51526234 55.0885747,5.51526234 C54.2800504,5.51538201 53.6221359,4.85828617 53.6221359,4.05064826 L53.6221359,4.05064826 Z M44.1796069,4.05064826 C44.1796069,3.24301034 44.8374016,2.58603417 45.6460458,2.58603417 C46.4545701,2.58603417 47.1124846,3.24301034 47.1124846,4.05064826 C47.1124846,4.85828617 46.4545701,5.51526234 45.6460458,5.51526234 C44.8374016,5.51538201 44.1796069,4.85828617 44.1796069,4.05064826 L44.1796069,4.05064826 Z M4.70042299,37.7748266 C4.70042299,33.2930285 6.44783242,29.0795256 9.62094296,25.9103635 C12.7939337,22.7414408 17.012806,20.996086 21.5001879,20.996086 C33.0731809,20.996086 42.5348806,30.1130963 42.9361473,41.4717236 L29.3335761,45.557182 C29.9929284,44.0438631 30.3587294,42.3749761 30.3587294,40.622202 C30.3587294,35.0371865 25.8094021,30.4935202 20.2174283,30.4935202 C17.9959035,30.4935202 15.9073754,31.3575217 14.336576,32.9263664 C12.7657767,34.4952111 11.9006988,36.5811404 11.9006988,38.7997812 C11.9006988,42.5762573 14.9767577,45.6484885 18.7576992,45.6484885 C21.8948647,45.6483689 24.4470841,43.0992056 24.4470841,39.9661832 C24.4470841,37.3472536 22.3138644,35.2166882 19.6919115,35.2166882 C18.6213476,35.2166882 17.6148858,35.6330125 16.8578827,36.3891932 C16.1008797,37.1452543 15.6839169,38.1505834 15.6840367,39.2195758 C15.6840367,41.0974028 17.2137389,42.6253211 19.0937856,42.6253211 C19.6562061,42.6253211 20.1122291,42.1698655 20.1122291,41.6081449 C20.1122291,41.0464243 19.6562061,40.5909687 19.0937856,40.5909687 C18.3367825,40.5909687 17.7209237,39.9757566 17.7209237,39.2194562 C17.7208039,38.6937555 17.9258106,38.1995276 18.2980817,37.8276001 C18.6704725,37.4557923 19.1654361,37.2510407 19.6919115,37.2510407 C21.1908207,37.2510407 22.4101971,38.4690194 22.4101971,39.9661832 C22.4101971,41.9776791 20.7715814,43.6140164 18.7575794,43.6141361 C16.0998013,43.6141361 13.937466,41.4543718 13.937466,38.7997812 C13.937466,37.1244321 14.5905878,35.5494844 15.776775,34.3647732 C16.9628423,33.1803014 18.5398721,32.527753 20.2173085,32.527753 C24.6861188,32.527753 28.3217225,36.1588327 28.3217225,40.6220823 C28.3217225,46.3414847 23.6630025,50.9945274 17.9364743,50.9945274 C10.6380685,50.9945274 4.70042299,45.0641507 4.70042299,37.7748266 L4.70042299,37.7748266 Z M52.5906323,52.6721501 C50.5203164,54.750301 47.502848,55.8040955 43.6219791,55.8040955 L4.64686484,55.8040955 L10.8169551,51.449265 C10.8653611,51.4151597 10.9089745,51.376866 10.9493527,51.3364183 C13.044351,52.4176167 15.4201999,53.0289995 17.9364743,53.0289995 C21.965317,53.0289995 25.5527544,51.1030661 27.8237636,48.1250134 C27.8695336,48.1178334 27.9153037,48.1074223 27.9608341,48.0937801 L44.2609626,43.1981708 C44.6914646,43.0689296 44.9860944,42.6730686 44.9860944,42.224075 L44.9860944,22.519816 C44.9860944,19.5899895 47.3727269,17.2063268 50.3063234,17.2063268 C53.23992,17.2063268 55.6265525,19.5899895 55.6265525,22.519816 L55.6266724,45.3184448 C55.6267922,45.3611662 55.6133727,49.6379733 52.5906323,52.6721501 L52.5906323,52.6721501 Z" id="Shape"></path>
        </g>
    </g>
</svg>