<?xml version="1.0" encoding="UTF-8"?>
<svg width="1164px" height="217px" viewBox="0 0 1164 217" version="1.1" xmlns="http://www.w3.org/2000/svg" xmlns:xlink="http://www.w3.org/1999/xlink">
    <!-- Generator: Sketch 41 (35326) - http://www.bohemiancoding.com/sketch -->
    <title>slowinvest</title>
    <desc>Created with Sketch.</desc>
    <defs></defs>
    <g id="Page-2" stroke="none" stroke-width="1" fill="none" fill-rule="evenodd">
        <g id="slowinvest">
            <path d="M1156.66344,28.519816 C1156.66344,26.8200547 1156.08101,25.2545607 1155.10702,24.0083403 L1155.10702,13.3984744 C1156.5435,12.9616869 1157.5919,11.6263141 1157.5919,10.0506483 C1157.5919,8.12124447 1156.02026,6.55168173 1154.08857,6.55168173 C1152.15677,6.55168173 1150.58525,8.12124447 1150.58525,10.0506483 C1150.58525,11.6263141 1151.63365,12.9615673 1153.07013,13.3984744 L1153.07013,22.2094941 C1151.96818,21.5514409 1150.68098,21.1719743 1149.30632,21.1719743 C1147.98175,21.1719743 1146.73913,21.525114 1145.66437,22.1394884 L1145.66437,13.3984744 C1147.10085,12.9616869 1148.14925,11.6263141 1148.14925,10.0506483 C1148.14925,8.12124447 1146.57761,6.55168173 1144.64593,6.55168173 C1142.71412,6.55168173 1141.1426,8.12124447 1141.1426,10.0506483 C1141.1426,11.6263141 1142.191,12.9615673 1143.62748,13.3984744 L1143.62748,23.8534902 C1142.57944,25.1234048 1141.94921,26.7494507 1141.94921,28.519816 L1141.94921,38.7538054 C1140.78579,36.1869313 1139.14202,33.8228941 1137.06248,31.7707112 C1132.61296,27.3798606 1126.73091,24.9617336 1120.49995,24.9617336 C1115.46848,24.9617336 1110.73823,26.918661 1107.18038,30.4719567 C1103.62266,34.0252524 1101.6633,38.7497367 1101.6633,43.7748266 C1101.6633,48.8875133 1104.19503,53.4205292 1108.07194,56.1897615 L1099.85322,61.9906576 C1099.4909,62.2463877 1099.33597,62.7068694 1099.47029,63.1292967 C1099.6046,63.5516043 1099.99724,63.8385676 1100.44092,63.8385676 L1142.62198,63.8385676 C1147.07689,63.8385676 1150.58681,62.5764315 1153.0542,60.0872218 C1156.67279,56.4368755 1156.66548,51.5087165 1156.66332,51.310786 L1156.66332,28.519816 L1156.66344,28.519816 Z M1152.62214,10.0506483 C1152.62214,9.24301034 1153.28005,8.58603417 1154.08857,8.58603417 C1154.89722,8.58603417 1155.55501,9.24301034 1155.55501,10.0506483 C1155.55501,10.8582862 1154.8971,11.5152623 1154.08857,11.5152623 C1153.28005,11.515382 1152.62214,10.8582862 1152.62214,10.0506483 L1152.62214,10.0506483 Z M1143.17961,10.0506483 C1143.17961,9.24301034 1143.8374,8.58603417 1144.64605,8.58603417 C1145.45457,8.58603417 1146.11248,9.24301034 1146.11248,10.0506483 C1146.11248,10.8582862 1145.45457,11.5152623 1144.64605,11.5152623 C1143.8374,11.515382 1143.17961,10.8582862 1143.17961,10.0506483 L1143.17961,10.0506483 Z M1103.70042,43.7748266 C1103.70042,39.2930285 1105.44783,35.0795256 1108.62094,31.9103635 C1111.79393,28.7414408 1116.01281,26.996086 1120.50019,26.996086 C1132.07318,26.996086 1141.53488,36.1130963 1141.93615,47.4717236 L1128.33358,51.557182 C1128.99293,50.0438631 1129.35873,48.3749761 1129.35873,46.622202 C1129.35873,41.0371865 1124.8094,36.4935202 1119.21743,36.4935202 C1116.9959,36.4935202 1114.90738,37.3575217 1113.33658,38.9263664 C1111.76578,40.4952111 1110.9007,42.5811404 1110.9007,44.7997812 C1110.9007,48.5762573 1113.97676,51.6484885 1117.7577,51.6484885 C1120.89486,51.6483689 1123.44708,49.0992056 1123.44708,45.9661832 C1123.44708,43.3472536 1121.31386,41.2166882 1118.69191,41.2166882 C1117.62135,41.2166882 1116.61489,41.6330125 1115.85788,42.3891932 C1115.10088,43.1452543 1114.68392,44.1505834 1114.68404,45.2195758 C1114.68404,47.0974028 1116.21374,48.6253211 1118.09379,48.6253211 C1118.65621,48.6253211 1119.11223,48.1698655 1119.11223,47.6081449 C1119.11223,47.0464243 1118.65621,46.5909687 1118.09379,46.5909687 C1117.33678,46.5909687 1116.72092,45.9757566 1116.72092,45.2194562 C1116.7208,44.6937555 1116.92581,44.1995276 1117.29808,43.8276001 C1117.67047,43.4557923 1118.16544,43.2510407 1118.69191,43.2510407 C1120.19082,43.2510407 1121.4102,44.4690194 1121.4102,45.9661832 C1121.4102,47.9776791 1119.77158,49.6140164 1117.75758,49.6141361 C1115.0998,49.6141361 1112.93747,47.4543718 1112.93747,44.7997812 C1112.93747,43.1244321 1113.59059,41.5494844 1114.77677,40.3647732 C1115.96284,39.1803014 1117.53987,38.527753 1119.21731,38.527753 C1123.68612,38.527753 1127.32172,42.1588327 1127.32172,46.6220823 C1127.32172,52.3414847 1122.663,56.9945274 1116.93647,56.9945274 C1109.63807,56.9945274 1103.70042,51.0641507 1103.70042,43.7748266 L1103.70042,43.7748266 Z M1151.59063,58.6721501 C1149.52032,60.750301 1146.50285,61.8040955 1142.62198,61.8040955 L1103.64686,61.8040955 L1109.81696,57.449265 C1109.86536,57.4151597 1109.90897,57.376866 1109.94935,57.3364183 C1112.04435,58.4176167 1114.4202,59.0289995 1116.93647,59.0289995 C1120.96532,59.0289995 1124.55275,57.1030661 1126.82376,54.1250134 C1126.86953,54.1178334 1126.9153,54.1074223 1126.96083,54.0937801 L1143.26096,49.1981708 C1143.69146,49.0689296 1143.98609,48.6730686 1143.98609,48.224075 L1143.98609,28.519816 C1143.98609,25.5899895 1146.37273,23.2063268 1149.30632,23.2063268 C1152.23992,23.2063268 1154.62655,25.5899895 1154.62655,28.519816 L1154.62667,51.3184448 C1154.62679,51.3611662 1154.61337,55.6379733 1151.59063,58.6721501 L1151.59063,58.6721501 Z" id="Shape" fill="#FFFFFF" transform="translate(1128.507165, 35.195125) rotate(-15.000000) translate(-1128.507165, -35.195125) "></path>
            <path d="M0,216.837891 L263.703125,103.615234 L344.105469,183.402344 L424.9375,109.445312 L486.523438,138.5625 L903.148437,48 L967.099609,103.615234 L1108.46094,69.3398438" id="Path-2" stroke="#FFFFFF" stroke-width="2" stroke-linecap="round" stroke-linejoin="round" stroke-dasharray="6"></path>
        </g>
    </g>
</svg>