<?xml version="1.0" encoding="UTF-8"?>
<svg width="72px" height="70px" viewBox="0 0 72 70" version="1.1" xmlns="http://www.w3.org/2000/svg" xmlns:xlink="http://www.w3.org/1999/xlink">
    <!-- Generator: Sketch 40.3 (33839) - http://www.bohemiancoding.com/sketch -->
    <title>Artboard 4</title>
    <desc>Created with Sketch.</desc>
    <defs></defs>
    <g id="Symbols" stroke="none" stroke-width="1" fill="none" fill-rule="evenodd">
        <g id="Artboard-4">
            <g id="Group-3-Copy">
                <g id="Page-1">
                    <g id="Group-32">
                        <polygon id="Fill-13" fill="#57AB27" points="45.767898 17.5576686 53.5949708 9.73428043 53.5949708 17.9723721 56.3560214 15.2128228 56.3560214 4.95662136 46.0948118 4.95662136 43.3337612 7.71674195 51.5763347 7.71617073 43.7486903 15.5395589"></polygon>
                        <polygon id="Fill-14" fill="#132862" points="43.0765737 39.5963633 34.1064453 30.6311123 42.3490188 30.6305411 39.5873966 27.8709917 29.326187 27.8715629 29.326187 38.1271931 32.0878092 40.8873137 32.0872377 32.6486508 41.0573661 41.6144729"></polygon>
                        <polygon id="Fill-15" fill="#132862" points="26.692587 29.6427355 19.6902288 22.6441847 26.1244884 22.6436135 23.9681142 20.4895541 15.9592955 20.4901254 15.9592955 28.496303 18.1150983 30.6503623 18.1145267 24.21903 25.1163135 31.218152"></polygon>
                        <polygon id="Fill-16" fill="#132862" points="56.357336 45.9221918 49.3549777 38.923641 55.7892374 38.923641 53.6328631 36.7690104 45.6240444 36.7695816 45.6240444 44.7757592 47.7798472 46.9303898 47.7792756 40.4990575 54.7810624 47.4981795"></polygon>
                        <polygon id="Fill-17" fill="#132862" points="41.076798 21.5899466 34.0744397 14.5913958 40.5086994 14.5913958 38.3523251 12.4367652 30.3435065 12.4373364 30.3435065 20.443514 32.4993092 22.5981446 32.4987377 16.1668123 39.5005244 23.1659343"></polygon>
                        <polygon id="Fill-18" fill="#132862" points="26.692587 46.0359782 19.6902288 39.0374274 26.1244884 39.0374274 23.9681142 36.8833681 15.9592955 36.8839393 15.9592955 44.8895457 18.1150983 47.0441762 18.1145267 40.6128439 25.1163135 47.6119659"></polygon>
                        <polygon id="Fill-19" fill="#132862" points="41.076798 54.9852351 34.0744397 47.9866843 40.5086994 47.9866843 38.3523251 45.8331962 30.3435065 45.8331962 30.3435065 53.8388026 32.4993092 55.9934331 32.4987377 49.5621008 39.5005244 56.5612228"></polygon>
                        <polygon id="Fill-20" fill="#132862" points="40.0230151 68.2565484 34.0111145 62.2479166 39.5349304 62.2479166 37.6831804 60.3994584 30.8082728 60.3994584 30.8088444 67.2723415 32.6594513 69.1219421 32.6588798 63.6011297 38.6702089 69.6091902"></polygon>
                        <polygon id="Fill-21" fill="#132862" points="54.8386724 62.6397715 48.8267717 56.6311398 54.3505876 56.6311398 52.4988377 54.7826815 45.6239301 54.7826815 45.6245016 61.6555646 47.4751086 63.5051653 47.474537 57.9843529 53.4858661 63.9924134"></polygon>
                        <polygon id="Fill-22" fill="#132862" points="25.1727804 12.8141683 19.1608798 6.80553657 24.6846957 6.80553657 22.8329457 4.95707833 15.9580381 4.95707833 15.9586097 11.8299614 17.8092166 13.6795621 17.8086451 8.15874967 23.8199742 14.1668102"></polygon>
                        <polygon id="Fill-23" fill="#132862" points="39.238879 7.58621886 33.559036 1.91003544 38.7770846 1.91003544 37.0287811 0.163253821 30.5339395 0.163825038 30.534511 6.65742 32.2828145 8.40420162 32.282243 3.1884191 37.9603714 8.86460253"></polygon>
                        <polygon id="Fill-24" fill="#132862" points="67.7387972 23.9612969 62.0589542 18.2851135 67.2770027 18.2851135 65.5286993 16.5383318 59.0338577 16.5389031 59.0344292 23.032498 60.7827326 24.7792796 60.7821611 19.5634971 66.4602895 25.2396805"></polygon>
                        <polygon id="Fill-25" fill="#132862" points="71.3766857 37.529643 66.2043594 32.3601291 70.9566128 32.3601291 69.3637649 30.7698609 63.449024 30.7698609 63.4495955 36.6836706 65.0418719 38.27451 65.0413004 33.5242693 70.2119121 38.6920696"></polygon>
                        <polygon id="Fill-26" fill="#132862" points="13.1924724 23.6876839 8.02014607 18.5187412 12.7723995 18.5187412 11.1795516 16.9279018 5.26481069 16.9284731 5.26538221 22.8417115 6.85765858 24.4325509 6.85708706 19.6823103 12.0276988 24.8506818"></polygon>
                        <polygon id="Fill-27" fill="#132862" points="8.33002843 37.529643 3.1577021 32.3601291 7.90995552 32.3601291 6.31710762 30.7698609 0.402366711 30.7698609 0.402938239 36.6836706 1.99521461 38.27451 1.99464308 33.5242693 7.16525483 38.6920696"></polygon>
                        <polygon id="Fill-28" fill="#132862" points="13.1924724 51.4552853 8.02014607 46.2857714 12.7723995 46.2857714 11.1795516 44.6955033 5.26481069 44.6960745 5.26538221 50.609313 6.85765858 52.2001523 6.85708706 47.4499117 12.0276988 52.6182832"></polygon>
                        <polygon id="Fill-29" fill="#132862" points="67.1795572 51.4569419 62.0072309 46.2874279 66.7594843 46.2874279 65.1666364 44.6971598 59.2518955 44.6971598 59.252467 50.6103983 60.8447434 52.2012376 60.8441719 47.4515682 66.0147836 52.6193685"></polygon>
                        <polygon id="Fill-30" fill="#132862" points="25.1727804 62.9258941 19.1608798 56.9166912 24.6846957 56.9166912 22.8329457 55.0682329 15.9580381 55.0682329 15.9586097 61.9416872 17.8092166 63.7907167 17.8086451 58.2704755 23.8199742 64.2779648"></polygon>
                        <polygon id="Fill-31" fill="#132862" points="56.357336 29.6422214 49.3549777 22.6436706 55.7892374 22.6436706 53.6328631 20.4901825 45.6240444 20.4901825 45.6240444 28.4957889 47.7798472 30.6504194 47.7792756 24.2190871 54.7810624 31.2182091"></polygon>
                    </g>
                </g>
            </g>
        </g>
    </g>
</svg>