<?xml version="1.0" encoding="UTF-8"?>
<svg width="380px" height="243px" viewBox="0 0 380 243" version="1.1" xmlns="http://www.w3.org/2000/svg" xmlns:xlink="http://www.w3.org/1999/xlink">
    <!-- Generator: Sketch 41.1 (35376) - http://www.bohemiancoding.com/sketch -->
    <title>Artboard</title>
    <desc>Created with Sketch.</desc>
    <defs>
        <polygon id="path-1" points="21.5593177 18.4901699 43.1186354 18.4901699 43.1186354 3.03231375e-05 0 3.03231375e-05 0 9.24510009 0 18.4901699 21.5593177 18.4901699"></polygon>
        <polygon id="path-3" points="21.5593177 18.4901699 43.1186354 18.4901699 43.1186354 3.03231375e-05 0 3.03231375e-05 0 9.24510009 0 18.4901699 21.5593177 18.4901699"></polygon>
        <polygon id="path-5" points="21.5593177 18.4901699 43.1186354 18.4901699 43.1186354 3.03231375e-05 0 3.03231375e-05 0 9.24510009 0 18.4901699 21.5593177 18.4901699"></polygon>
        <polygon id="path-7" points="21.5593177 18.4901699 43.1186354 18.4901699 43.1186354 3.03231375e-05 0 3.03231375e-05 0 9.24510009 0 18.4901699 21.5593177 18.4901699"></polygon>
        <polygon id="path-9" points="21.5593177 18.4901699 43.1186354 18.4901699 43.1186354 3.03231375e-05 0 3.03231375e-05 0 9.24510009 0 18.4901699 21.5593177 18.4901699"></polygon>
    </defs>
    <g id="animaties" stroke="none" stroke-width="1" fill="none" fill-rule="evenodd">
        <g id="Artboard">
            <g id="Group-4" transform="translate(124.000000, 162.000000)">
                <g id="Group">
                    <g id="Page-1">
                        <path d="M61.0691261,30.5346074 C61.0691261,47.3982917 47.3986022,61.0692592 30.5344743,61.0692592 C13.6712337,61.0692592 -0.000177447091,47.3982917 -0.000177447091,30.5346074 C-0.000177447091,13.6704795 13.6712337,-4.43617728e-05 30.5344743,-4.43617728e-05 C47.3986022,-4.43617728e-05 61.0691261,13.6704795 61.0691261,30.5346074" id="Fill-1" fill="#FFD21F"></path>
                        <path d="M16.6346001,30.9782251 L16.6346001,30.9782251 C15.4146513,30.9782251 14.4165114,29.9800852 14.4165114,28.7601365 L14.4165114,23.4367238 C14.4165114,22.216775 15.4146513,21.2186351 16.6346001,21.2186351 C17.8545488,21.2186351 18.8526887,22.216775 18.8526887,23.4367238 L18.8526887,28.7601365 C18.8526887,29.9800852 17.8545488,30.9782251 16.6346001,30.9782251" id="Fill-4" fill="#403407"></path>
                        <path d="M44.4345704,30.9782251 L44.4345704,30.9782251 C43.2146216,30.9782251 42.2164817,29.9800852 42.2164817,28.7601365 L42.2164817,23.4367238 C42.2164817,22.216775 43.2146216,21.2186351 44.4345704,21.2186351 C45.6545191,21.2186351 46.652659,22.216775 46.652659,23.4367238 L46.652659,28.7601365 C46.652659,29.9800852 45.6545191,30.9782251 44.4345704,30.9782251" id="Fill-6" fill="#403407"></path>
                        <path d="M41.5986997,38.5580994 C41.5986997,38.5580994 39.2856769,46.6541229 30.6076269,46.6541229 C21.9291333,46.6541229 19.7137064,38.6215368 19.7137064,38.6215368" id="Stroke-8" stroke="#403407" stroke-width="4" stroke-linecap="round"></path>
                    </g>
                    <g id="Page-1" transform="translate(9.248557, 62.427759)">
                        <mask id="mask-2" fill="white">
                            <use xlink:href="#path-1"></use>
                        </mask>
                        <g id="Clip-2"></g>
                        <path d="M0,18.4901699 C14.6951807,18.4901699 18.9338587,14.3510616 18.9338587,9.2452517 C18.9338587,4.13913859 14.6951807,3.03231375e-05 0,3.03231375e-05 L0,18.4901699 Z" id="Fill-1" fill="#54AD16" mask="url(#mask-2)"></path>
                        <path d="M43.1186975,18.4901699 C28.4235168,18.4901699 24.1848389,14.3510616 24.1848389,9.2452517 C24.1848389,4.13913859 28.4235168,3.03231375e-05 43.1186975,3.03231375e-05 L43.1186975,18.4901699 Z" id="Fill-3" fill="#54AD16" mask="url(#mask-2)"></path>
                        <path d="M26.0819508,9.24516074 C26.0819508,11.6840507 24.05716,13.6617257 21.5597835,13.6617257 C19.0624069,13.6617257 17.0366847,11.6840507 17.0366847,9.24516074 C17.0366847,6.80596756 19.0624069,4.82859576 21.5597835,4.82859576 C24.05716,4.82859576 26.0819508,6.80596756 26.0819508,9.24516074" id="Fill-4" fill="#71D538" mask="url(#mask-2)"></path>
                    </g>
                </g>
            </g>
            <g id="Group-4-Copy" transform="translate(90.000000, 0.000000)">
                <g id="Group">
                    <g id="Page-1">
                        <path d="M61.0691261,30.5346074 C61.0691261,47.3982917 47.3986022,61.0692592 30.5344743,61.0692592 C13.6712337,61.0692592 -0.000177447091,47.3982917 -0.000177447091,30.5346074 C-0.000177447091,13.6704795 13.6712337,-4.43617728e-05 30.5344743,-4.43617728e-05 C47.3986022,-4.43617728e-05 61.0691261,13.6704795 61.0691261,30.5346074" id="Fill-1" fill="#FFD21F"></path>
                        <path d="M16.6346001,30.9782251 L16.6346001,30.9782251 C15.4146513,30.9782251 14.4165114,29.9800852 14.4165114,28.7601365 L14.4165114,23.4367238 C14.4165114,22.216775 15.4146513,21.2186351 16.6346001,21.2186351 C17.8545488,21.2186351 18.8526887,22.216775 18.8526887,23.4367238 L18.8526887,28.7601365 C18.8526887,29.9800852 17.8545488,30.9782251 16.6346001,30.9782251" id="Fill-4" fill="#403407"></path>
                        <path d="M44.4345704,30.9782251 L44.4345704,30.9782251 C43.2146216,30.9782251 42.2164817,29.9800852 42.2164817,28.7601365 L42.2164817,23.4367238 C42.2164817,22.216775 43.2146216,21.2186351 44.4345704,21.2186351 C45.6545191,21.2186351 46.652659,22.216775 46.652659,23.4367238 L46.652659,28.7601365 C46.652659,29.9800852 45.6545191,30.9782251 44.4345704,30.9782251" id="Fill-6" fill="#403407"></path>
                        <path d="M41.5986997,38.5580994 C41.5986997,38.5580994 39.2856769,46.6541229 30.6076269,46.6541229 C21.9291333,46.6541229 19.7137064,38.6215368 19.7137064,38.6215368" id="Stroke-8" stroke="#403407" stroke-width="4" stroke-linecap="round"></path>
                    </g>
                    <g id="Page-1" transform="translate(9.248557, 62.427759)">
                        <mask id="mask-4" fill="white">
                            <use xlink:href="#path-3"></use>
                        </mask>
                        <g id="Clip-2"></g>
                        <path d="M0,18.4901699 C14.6951807,18.4901699 18.9338587,14.3510616 18.9338587,9.2452517 C18.9338587,4.13913859 14.6951807,3.03231375e-05 0,3.03231375e-05 L0,18.4901699 Z" id="Fill-1" fill="#112664" mask="url(#mask-4)"></path>
                        <path d="M43.1186975,18.4901699 C28.4235168,18.4901699 24.1848389,14.3510616 24.1848389,9.2452517 C24.1848389,4.13913859 28.4235168,3.03231375e-05 43.1186975,3.03231375e-05 L43.1186975,18.4901699 Z" id="Fill-3" fill="#112664" mask="url(#mask-4)"></path>
                        <path d="M26.0819508,9.24516074 C26.0819508,11.6840507 24.05716,13.6617257 21.5597835,13.6617257 C19.0624069,13.6617257 17.0366847,11.6840507 17.0366847,9.24516074 C17.0366847,6.80596756 19.0624069,4.82859576 21.5597835,4.82859576 C24.05716,4.82859576 26.0819508,6.80596756 26.0819508,9.24516074" id="Fill-4" fill="#384876" mask="url(#mask-4)"></path>
                    </g>
                </g>
            </g>
            <g id="Group-4-Copy-2" transform="translate(224.000000, 66.000000)">
                <g id="Group">
                    <g id="Page-1">
                        <path d="M61.0691261,30.5346074 C61.0691261,47.3982917 47.3986022,61.0692592 30.5344743,61.0692592 C13.6712337,61.0692592 -0.000177447091,47.3982917 -0.000177447091,30.5346074 C-0.000177447091,13.6704795 13.6712337,-4.43617728e-05 30.5344743,-4.43617728e-05 C47.3986022,-4.43617728e-05 61.0691261,13.6704795 61.0691261,30.5346074" id="Fill-1" fill="#FFD21F"></path>
                        <path d="M16.6346001,30.9782251 L16.6346001,30.9782251 C15.4146513,30.9782251 14.4165114,29.9800852 14.4165114,28.7601365 L14.4165114,23.4367238 C14.4165114,22.216775 15.4146513,21.2186351 16.6346001,21.2186351 C17.8545488,21.2186351 18.8526887,22.216775 18.8526887,23.4367238 L18.8526887,28.7601365 C18.8526887,29.9800852 17.8545488,30.9782251 16.6346001,30.9782251" id="Fill-4" fill="#403407"></path>
                        <path d="M44.4345704,30.9782251 L44.4345704,30.9782251 C43.2146216,30.9782251 42.2164817,29.9800852 42.2164817,28.7601365 L42.2164817,23.4367238 C42.2164817,22.216775 43.2146216,21.2186351 44.4345704,21.2186351 C45.6545191,21.2186351 46.652659,22.216775 46.652659,23.4367238 L46.652659,28.7601365 C46.652659,29.9800852 45.6545191,30.9782251 44.4345704,30.9782251" id="Fill-6" fill="#403407"></path>
                        <path d="M41.5986997,38.5580994 C41.5986997,38.5580994 39.2856769,46.6541229 30.6076269,46.6541229 C21.9291333,46.6541229 19.7137064,38.6215368 19.7137064,38.6215368" id="Stroke-8" stroke="#403407" stroke-width="4" stroke-linecap="round"></path>
                    </g>
                    <g id="Page-1" transform="translate(9.248557, 62.427759)">
                        <mask id="mask-6" fill="white">
                            <use xlink:href="#path-5"></use>
                        </mask>
                        <g id="Clip-2"></g>
                        <path d="M0,18.4901699 C14.6951807,18.4901699 18.9338587,14.3510616 18.9338587,9.2452517 C18.9338587,4.13913859 14.6951807,3.03231375e-05 0,3.03231375e-05 L0,18.4901699 Z" id="Fill-1" fill="#112664" mask="url(#mask-6)"></path>
                        <path d="M43.1186975,18.4901699 C28.4235168,18.4901699 24.1848389,14.3510616 24.1848389,9.2452517 C24.1848389,4.13913859 28.4235168,3.03231375e-05 43.1186975,3.03231375e-05 L43.1186975,18.4901699 Z" id="Fill-3" fill="#112664" mask="url(#mask-6)"></path>
                        <path d="M26.0819508,9.24516074 C26.0819508,11.6840507 24.05716,13.6617257 21.5597835,13.6617257 C19.0624069,13.6617257 17.0366847,11.6840507 17.0366847,9.24516074 C17.0366847,6.80596756 19.0624069,4.82859576 21.5597835,4.82859576 C24.05716,4.82859576 26.0819508,6.80596756 26.0819508,9.24516074" id="Fill-4" fill="#384876" mask="url(#mask-6)"></path>
                    </g>
                </g>
            </g>
            <g id="Group-3" transform="translate(0.000000, 81.000000)">
                <g id="Group-2">
                    <g id="Page-1-Copy-2">
                        <path d="M61.0689043,30.5346074 C61.0689043,47.3982917 47.3979368,61.0692592 30.5338089,61.0692592 C13.6701246,61.0692592 4.43617728e-05,47.3982917 4.43617728e-05,30.5346074 C4.43617728e-05,13.6704795 13.6701246,-4.43617728e-05 30.5338089,-4.43617728e-05 C47.3979368,-4.43617728e-05 61.0689043,13.6704795 61.0689043,30.5346074" id="Fill-1" fill="#FFD21F"></path>
                        <path d="M40.0352134,28.2069452 C40.0352134,28.2069452 39.9797611,23.4748749 44.1941296,23.4748749 C48.408498,23.4748749 48.3157819,28.1701249 48.3157819,28.1701249" id="Stroke-4" stroke="#403407" stroke-width="4" stroke-linecap="round"></path>
                        <path d="M12.7527232,28.2069452 C12.7527232,28.2069452 12.6972709,23.4748749 16.9116393,23.4748749 C21.1260078,23.4748749 21.0332916,28.1701249 21.0332916,28.1701249" id="Stroke-6" stroke="#403407" stroke-width="4" stroke-linecap="round"></path>
                        <path d="M41.4765274,38.5580994 C41.4765274,38.5580994 39.1639481,46.6541229 30.4854546,46.6541229 C21.806961,46.6541229 19.5919777,38.6215368 19.5919777,38.6215368" id="Stroke-8" stroke="#403407" stroke-width="4" stroke-linecap="round"></path>
                    </g>
                    <g id="Page-1-Copy-4" transform="translate(9.248557, 62.427759)">
                        <mask id="mask-8" fill="white">
                            <use xlink:href="#path-7"></use>
                        </mask>
                        <g id="Clip-2"></g>
                        <path d="M0,18.4901699 C14.6951807,18.4901699 18.9338587,14.3510616 18.9338587,9.2452517 C18.9338587,4.13913859 14.6951807,3.03231375e-05 0,3.03231375e-05 L0,18.4901699 Z" id="Fill-1" fill="#112664" mask="url(#mask-8)"></path>
                        <path d="M43.1186975,18.4901699 C28.4235168,18.4901699 24.1848389,14.3510616 24.1848389,9.2452517 C24.1848389,4.13913859 28.4235168,3.03231375e-05 43.1186975,3.03231375e-05 L43.1186975,18.4901699 Z" id="Fill-3" fill="#112664" mask="url(#mask-8)"></path>
                        <path d="M26.0819508,9.24516074 C26.0819508,11.6840507 24.05716,13.6617257 21.5597835,13.6617257 C19.0624069,13.6617257 17.0366847,11.6840507 17.0366847,9.24516074 C17.0366847,6.80596756 19.0624069,4.82859576 21.5597835,4.82859576 C24.05716,4.82859576 26.0819508,6.80596756 26.0819508,9.24516074" id="Fill-4" fill="#384876" mask="url(#mask-8)"></path>
                    </g>
                </g>
            </g>
            <g id="Group-3-Copy" transform="translate(318.000000, 147.000000)">
                <g id="Group-2">
                    <g id="Page-1-Copy-2">
                        <path d="M61.0689043,30.5346074 C61.0689043,47.3982917 47.3979368,61.0692592 30.5338089,61.0692592 C13.6701246,61.0692592 4.43617728e-05,47.3982917 4.43617728e-05,30.5346074 C4.43617728e-05,13.6704795 13.6701246,-4.43617728e-05 30.5338089,-4.43617728e-05 C47.3979368,-4.43617728e-05 61.0689043,13.6704795 61.0689043,30.5346074" id="Fill-1" fill="#FFD21F"></path>
                        <path d="M40.0352134,28.2069452 C40.0352134,28.2069452 39.9797611,23.4748749 44.1941296,23.4748749 C48.408498,23.4748749 48.3157819,28.1701249 48.3157819,28.1701249" id="Stroke-4" stroke="#403407" stroke-width="4" stroke-linecap="round"></path>
                        <path d="M12.7527232,28.2069452 C12.7527232,28.2069452 12.6972709,23.4748749 16.9116393,23.4748749 C21.1260078,23.4748749 21.0332916,28.1701249 21.0332916,28.1701249" id="Stroke-6" stroke="#403407" stroke-width="4" stroke-linecap="round"></path>
                        <path d="M41.4765274,38.5580994 C41.4765274,38.5580994 39.1639481,46.6541229 30.4854546,46.6541229 C21.806961,46.6541229 19.5919777,38.6215368 19.5919777,38.6215368" id="Stroke-8" stroke="#403407" stroke-width="4" stroke-linecap="round"></path>
                    </g>
                    <g id="Page-1-Copy-4" transform="translate(9.248557, 62.427759)">
                        <mask id="mask-10" fill="white">
                            <use xlink:href="#path-9"></use>
                        </mask>
                        <g id="Clip-2"></g>
                        <path d="M0,18.4901699 C14.6951807,18.4901699 18.9338587,14.3510616 18.9338587,9.2452517 C18.9338587,4.13913859 14.6951807,3.03231375e-05 0,3.03231375e-05 L0,18.4901699 Z" id="Fill-1" fill="#112664" mask="url(#mask-10)"></path>
                        <path d="M43.1186975,18.4901699 C28.4235168,18.4901699 24.1848389,14.3510616 24.1848389,9.2452517 C24.1848389,4.13913859 28.4235168,3.03231375e-05 43.1186975,3.03231375e-05 L43.1186975,18.4901699 Z" id="Fill-3" fill="#112664" mask="url(#mask-10)"></path>
                        <path d="M26.0819508,9.24516074 C26.0819508,11.6840507 24.05716,13.6617257 21.5597835,13.6617257 C19.0624069,13.6617257 17.0366847,11.6840507 17.0366847,9.24516074 C17.0366847,6.80596756 19.0624069,4.82859576 21.5597835,4.82859576 C24.05716,4.82859576 26.0819508,6.80596756 26.0819508,9.24516074" id="Fill-4" fill="#384876" mask="url(#mask-10)"></path>
                    </g>
                </g>
            </g>
        </g>
    </g>
</svg>