<?xml version="1.0" encoding="UTF-8"?>
<svg width="292px" height="281px" viewBox="0 0 292 281" version="1.1" xmlns="http://www.w3.org/2000/svg" xmlns:xlink="http://www.w3.org/1999/xlink">
    <!-- Generator: Sketch 41.1 (35376) - http://www.bohemiancoding.com/sketch -->
    <title>Artboard 4</title>
    <desc>Created with Sketch.</desc>
    <defs></defs>
    <g id="animaties" stroke="none" stroke-width="1" fill="none" fill-rule="evenodd">
        <g id="Artboard-4">
            <path d="M139.519077,63.1505069 C139.519077,98.0245116 104.032413,126.299709 65.5078483,126.299709 C60.7743743,126.299709 62.1297858,126.327106 57.6108751,125.865268 C44.5840092,124.539766 61.8681234,155.29767 61.8681234,155.29767 C61.8681234,155.29767 0.71368013,119.239064 0.00457484691,63.1505069 C-0.437634721,28.2765021 31.2366068,-2.27373675e-13 69.7598634,-2.27373675e-13 C108.292278,-2.27373675e-13 139.519077,28.2765021 139.519077,63.1505069" id="Fill-1-Copy" fill="#FFFFFF" transform="translate(69.759538, 77.648835) rotate(-180.000000) translate(-69.759538, -77.648835) "></path>
            <path d="M291.519077,189.150507 C291.519077,224.024512 256.032413,252.299709 217.507848,252.299709 C212.774374,252.299709 214.129786,252.327106 209.610875,251.865268 C196.584009,250.539766 213.868123,281.29767 213.868123,281.29767 C213.868123,281.29767 152.71368,245.239064 152.004575,189.150507 C151.562365,154.276502 183.236607,126 221.759863,126 C260.292278,126 291.519077,154.276502 291.519077,189.150507" id="Fill-1-Copy-2" fill="#FFFFFF" transform="translate(221.759538, 203.648835) scale(-1, -1) rotate(-180.000000) translate(-221.759538, -203.648835) "></path>
            <polyline id="Path-3" stroke="#132862" stroke-width="3" stroke-linecap="round" stroke-linejoin="round" points="31 79.3590482 49.172898 109.74257 77.785546 65.088 106.011537 123.323084"></polyline>
            <g id="Page-1" transform="translate(195.000000, 166.000000)">
                <path d="M36.5832261,2.00125135 C50.1135054,7.57102613 56.5666135,23.0537108 50.9968387,36.5835126 C45.4275414,50.1133144 29.9448568,56.5664225 16.4145775,50.9971252 C2.88477568,45.4278279 -3.56833243,29.9451432 2.00144234,16.414864 C7.57073964,2.88553964 23.0534243,-3.56804595 36.5832261,2.00125135" id="Fill-1" fill="#FFD01F"></path>
                <path d="M22.0586,23.3268757 C22.0586,24.8906144 20.7913748,26.1573622 19.2281135,26.1573622 C17.6648523,26.1573622 16.397627,24.8906144 16.397627,23.3268757 C16.397627,21.7640919 17.6648523,20.4963892 19.2281135,20.4963892 C20.7913748,20.4963892 22.0586,21.7640919 22.0586,23.3268757" id="Fill-4" fill="#191919"></path>
                <path d="M37.4066838,23.3268757 C37.4066838,24.8906144 36.1394586,26.1573622 34.5761973,26.1573622 C33.012936,26.1573622 31.7457108,24.8906144 31.7457108,23.3268757 C31.7457108,21.7640919 33.012936,20.4963892 34.5761973,20.4963892 C36.1394586,20.4963892 37.4066838,21.7640919 37.4066838,23.3268757" id="Fill-6" fill="#191919"></path>
                <path d="M17.5,37.5 L39.5,34.5" id="Line" stroke="#000000" stroke-width="3" stroke-linecap="round" stroke-linejoin="round"></path>
            </g>
        </g>
    </g>
</svg>