<?xml version="1.0" encoding="UTF-8"?>
<svg width="164px" height="127px" viewBox="0 0 164 127" version="1.1" xmlns="http://www.w3.org/2000/svg" xmlns:xlink="http://www.w3.org/1999/xlink">
    <!-- Generator: Sketch 41.1 (35376) - http://www.bohemiancoding.com/sketch -->
    <title>Artboard 5</title>
    <desc>Created with Sketch.</desc>
    <defs>
        <polygon id="path-1" points="0 126.854 163.967853 126.854 163.967853 0 0 0"></polygon>
    </defs>
    <g id="animaties" stroke="none" stroke-width="1" fill="none" fill-rule="evenodd">
        <g id="Artboard-5">
            <g id="piggy">
                <path d="M51.2284263,106.60425 C51.2284263,104.9475 49.8790052,103.60425 48.2146438,103.60425 L39.1732962,103.60425 C37.5089348,103.60425 36.1595136,104.9475 36.1595136,106.60425 L36.1595136,120.85425 C36.1595136,122.511 37.5089348,123.85425 39.1732962,123.85425 L48.2146438,123.85425 C49.8790052,123.85425 51.2284263,122.511 51.2284263,120.85425 L51.2284263,106.60425 L51.2284263,106.60425 Z" id="Fill-1" fill="#ED7461"></path>
                <path d="M118.039088,106.60425 C118.039088,104.9475 116.689667,103.60425 115.025305,103.60425 L105.983958,103.60425 C104.319596,103.60425 102.970175,104.9475 102.970175,106.60425 L102.970175,120.85425 C102.970175,122.511 104.319596,123.85425 105.983958,123.85425 L115.025305,123.85425 C116.689667,123.85425 118.039088,122.511 118.039088,120.85425 L118.039088,106.60425 Z" id="Fill-3" fill="#ED7461"></path>
                <path d="M42.5750781,3.31665 C43.8574426,3.31665 45.0217672,3.8289 45.8711516,4.65965 L45.9311761,4.7199 L67.6153415,26.30465 L37.8667963,26.30465 L37.8667963,8.0009 C37.8667963,5.4124 39.9744349,3.31665 42.5750781,3.31665" id="Fill-5" fill="#ED7461"></path>
                <mask id="mask-2" fill="white">
                    <use xlink:href="#path-1"></use>
                </mask>
                <g id="Clip-8"></g>
                <polygon id="Fill-7" fill="#ED7461" mask="url(#mask-2)" points="0 81.51525 10.0539786 81.51525 10.0539786 56.373 0 56.373"></polygon>
                <path d="M152.48494,32.323 C154.029754,31.35675 155.79131,30.82725 157.439347,30.82725 C158.002924,30.82725 158.552186,30.88825 159.074324,31.01575 C160.861748,31.4495 161.687525,33.207 161.697571,34.65625 C161.70184,35.3115 161.527292,37.50025 159.061264,38.13575 C156.879035,38.69775 155.266661,37.32075 154.500156,36.448 C153.492548,35.304 152.804903,33.84475 152.48494,32.323 M6.63594732,68.94325 C6.63594732,95.3345 28.1287375,116.72925 54.6409825,116.72925 L112.173087,116.72925 L112.173087,116.71725 C138.227488,116.19125 159.187341,95.00325 159.187341,68.94325 C159.187341,68.56725 159.182318,68.18975 159.173779,67.81525 C158.914091,56.6385 154.797515,46.41 148.099635,38.398 C148.523574,36.67225 149.353368,35.13625 150.564156,33.8785 C151.02652,35.37925 151.778459,36.787 152.791592,37.9385 C154.683243,40.08775 157.176897,40.9575 159.630618,40.32525 C162.285509,39.63975 163.988296,37.40875 163.967702,34.64025 C163.948615,31.83075 162.157424,29.43675 159.613289,28.82 C157.313019,28.2615 154.651096,28.66425 152.292058,29.84375 C152.343292,28.9805 152.5201,28.1425 152.834287,27.3745 C153.902171,24.75625 156.403359,23.21775 160.065105,22.9255 C160.690214,22.8755 161.156345,22.33075 161.106618,21.70875 C161.055384,21.087 160.50562,20.62475 159.883022,20.672 C155.37365,21.03175 152.122281,23.10925 150.729914,26.52425 C150.137705,27.9755 149.925234,29.62475 150.060352,31.2735 C149.963911,31.3525 149.868976,31.43175 149.774293,31.5125 C148.20361,32.859 147.047071,34.52125 146.335065,36.40675 C137.778685,27.25225 125.659261,21.44225 112.173087,21.17 L112.173087,21.1575 L77.0323822,21.1575 L57.1866242,1.40425 L57.1268508,1.343 C56.2769642,0.513 55.115151,0 53.8307773,0 C51.2311387,0 49.1224956,2.0965 49.1224956,4.68475 L49.1224956,21.474 C25.5876165,24.15575 7.22263032,43.77825 6.64976049,67.7865 C6.6399657,68.1715 6.63594732,68.55725 6.63594732,68.94325" id="Fill-9" fill="#FA8780" mask="url(#mask-2)"></path>
                <path d="M82.1113593,29.1405 L82.1113593,29.1405 L105.903414,29.1405 C108.256927,29.1405 110.163145,31.0385 110.163145,33.3805 C110.163145,35.722 108.256927,37.61975 105.903414,37.61975 L82.1113593,37.61975 C79.757344,37.61975 77.8501219,35.722 77.8501219,33.3805 C77.8501219,31.0385 79.757344,29.14075 82.1113593,29.1405" id="Fill-10" fill="#D65B31" mask="url(#mask-2)"></path>
                <path d="M32.6621948,48.730825 C31.849227,48.730825 31.1907155,49.387075 31.1907155,50.196075 C31.1907155,52.036575 29.686838,53.532575 27.8386358,53.532575 C25.9911871,53.532575 24.4883142,52.036575 24.4883142,50.196075 C24.4883142,49.387075 23.8282959,48.730825 23.0150769,48.730825 C22.2023602,48.730825 21.5410861,49.387075 21.5410861,50.196075 C21.5410861,53.652575 24.3675118,56.465325 27.8386358,56.465325 C31.3122714,56.465325 34.1371902,53.652575 34.1371902,50.196075 C34.1371902,49.387075 33.4779253,48.730825 32.6621948,48.730825" id="Fill-11" fill="#D95B32" mask="url(#mask-2)"></path>
                <path d="M62.2789623,109.60425 C62.2789623,107.9475 60.9295412,106.60425 59.2651798,106.60425 L50.2238322,106.60425 C48.5594708,106.60425 47.2100496,107.9475 47.2100496,109.60425 L47.2100496,123.85425 C47.2100496,125.511 48.5594708,126.85425 50.2238322,126.85425 L59.2651798,126.85425 C60.9295412,126.85425 62.2789623,125.511 62.2789623,123.85425 L62.2789623,109.60425 Z" id="Fill-12" fill="#FA8780" mask="url(#mask-2)"></path>
                <path d="M129.089624,109.60425 C129.089624,107.9475 127.740203,106.60425 126.075841,106.60425 L117.034494,106.60425 C115.370132,106.60425 114.020711,107.9475 114.020711,109.60425 L114.020711,123.85425 C114.020711,125.511 115.370132,126.85425 117.034494,126.85425 L126.075841,126.85425 C127.740203,126.85425 129.089624,125.511 129.089624,123.85425 L129.089624,109.60425 Z" id="Fill-13" fill="#FA8780" mask="url(#mask-2)"></path>
                <path d="M27.8883249,72.8892449 C28.6619025,72.8892449 31.6345178,72.7605616 31.6345178,69.3467825 C31.6345178,65.9333899 27.8883249,61.4248366 27.8883249,61.4248366 C27.8883249,61.4248366 24.142132,65.9333899 24.142132,69.3467825 C24.142132,72.7605616 27.1147473,72.8892449 27.8883249,72.8892449" id="Page-1-Copy" fill="#80DEEA" mask="url(#mask-2)"></path>
            </g>
        </g>
    </g>
</svg>