<svg width="257px" height="74px" viewBox="0 0 257 74" version="1.1" xmlns="http://www.w3.org/2000/svg" xmlns:xlink="http://www.w3.org/1999/xlink">
    <g id="animaties" stroke="none" stroke-width="1" fill="none" fill-rule="evenodd">
        <g id="piglets">
            <g id="biggen">
                <g id="piggy" transform="translate(209.500000, 37.000000) scale(-1, 1) translate(-209.500000, -37.000000) translate(162.000000, 0.000000)">
                    <path d="M29.6750031,62.1158622 C29.6750031,61.1505118 28.8933262,60.3678307 27.9292144,60.3678307 L22.6918484,60.3678307 C21.7277366,60.3678307 20.9460597,61.1505118 20.9460597,62.1158622 L20.9460597,70.4190118 C20.9460597,71.3843622 21.7277366,72.1670433 22.6918484,72.1670433 L27.9292144,72.1670433 C28.8933262,72.1670433 29.6750031,71.3843622 29.6750031,70.4190118 L29.6750031,62.1158622 L29.6750031,62.1158622 Z" id="Fill-1" fill="#ED7461"></path>
                    <path d="M68.3763009,62.1158622 C68.3763009,61.1505118 67.594624,60.3678307 66.6305123,60.3678307 L61.3931462,60.3678307 C60.4290345,60.3678307 59.6473576,61.1505118 59.6473576,62.1158622 L59.6473576,70.4190118 C59.6473576,71.3843622 60.4290345,72.1670433 61.3931462,72.1670433 L66.6305123,72.1670433 C67.594624,72.1670433 68.3763009,71.3843622 68.3763009,70.4190118 L68.3763009,62.1158622 Z" id="Fill-3" fill="#ED7461"></path>
                    <path d="M24.6623928,1.93253622 C25.4052259,1.93253622 26.0796822,2.2310126 26.5717037,2.71507165 L26.606474,2.75017795 L39.1674234,15.3271189 L21.9350345,15.3271189 L21.9350345,4.66194173 C21.9350345,3.15368189 23.1559227,1.93253622 24.6623928,1.93253622" id="Fill-5" fill="#ED7461"></path>
                    <polygon id="Fill-7" fill="#ED7461" points="0 47.4970748 5.823951 47.4970748 5.823951 32.8472598 0 32.8472598"></polygon>
                    <path d="M88.3296907,18.833874 C89.2245528,18.2708622 90.2449663,17.9623346 91.1996217,17.9623346 C91.5260842,17.9623346 91.8442542,17.997878 92.1467121,18.0721693 C93.1821103,18.3249055 93.6604564,19.3489606 93.6662757,20.1934055 C93.6687489,20.5752047 93.5676386,21.8505394 92.139147,22.2208307 C90.8750505,22.5482953 89.9410536,21.7459488 89.4970413,21.2374173 C88.913366,20.5708346 88.5150352,19.720563 88.3296907,18.833874 M3.84399387,40.1716575 C3.84399387,55.5492362 16.2940858,68.0154685 31.6517887,68.0154685 L64.9783124,68.0154685 L64.9783124,68.0084764 C80.0708009,67.7019882 92.2121792,55.3562244 92.2121792,40.1716575 C92.2121792,39.9525709 92.2092695,39.7326102 92.2043231,39.5143976 C92.0538943,33.0019606 89.6692925,27.0420472 85.7894227,22.3736378 C86.0349969,21.3680827 86.5156708,20.4730906 87.2170413,19.7402283 C87.4848744,20.6146811 87.9204487,21.4349449 88.5073247,22.1058976 C89.603098,23.3582165 91.0475926,23.865 92.4689556,23.4966024 C94.0068499,23.0971772 94.9932205,21.7972244 94.981291,20.1840827 C94.9702343,18.5470512 93.9326539,17.152122 92.4589173,16.7927559 C91.1264441,16.4673307 89.5844763,16.7020039 88.2179602,17.3892717 C88.2476386,16.8862756 88.3500582,16.3979921 88.5320567,15.9504961 C89.1506478,14.4249016 90.5995069,13.5284528 92.7206401,13.3581654 C93.0827458,13.3290315 93.3527611,13.0116181 93.3239556,12.6491929 C93.2942772,12.2869134 92.9758162,12.0175709 92.6151654,12.0451024 C90.0030291,12.2547205 88.1196141,13.4652323 87.3130597,15.4550748 C86.9700123,16.300685 86.8469342,17.2616654 86.9252037,18.2223543 C86.8693384,18.2683858 86.8143461,18.314563 86.7594992,18.3616142 C85.8496524,19.146189 85.179706,20.1147441 84.7672634,21.2133819 C79.8108239,15.8792638 72.7904257,12.4939094 64.9783124,12.3352756 L64.9783124,12.3279921 L44.6224165,12.3279921 L33.1263982,0.818224409 L33.0917734,0.782535433 C32.5994609,0.298913386 31.9264594,0 31.1824625,0 C29.6765743,0 28.4551041,1.22158268 28.4551041,2.72969685 L28.4551041,12.5124094 C14.8220949,14.0750039 4.18384074,25.5085866 3.85199541,39.4976457 C3.84632159,39.7219764 3.84399387,39.9467441 3.84399387,40.1716575" id="Fill-9" fill="#FA8780"></path>
                    <ellipse id="Oval-5" fill="#FFFFFF" cx="20.9322034" cy="32.5274725" rx="4.02542373" ry="4.06593407"></ellipse>
                    <ellipse id="Oval-5-Copy" fill="#4E3E31" cx="19.6779047" cy="31.260551" rx="1.96604028" ry="1.98582577"></ellipse>
                    <path d="M47.5645069,16.9795039 L47.5645069,16.9795039 L61.34649,16.9795039 C62.7098055,16.9795039 63.8140168,18.0854252 63.8140168,19.4500551 C63.8140168,20.8143937 62.7098055,21.9201693 61.34649,21.9201693 L47.5645069,21.9201693 C46.2009005,21.9201693 45.0961072,20.8143937 45.0961072,19.4500551 C45.0961072,18.0854252 46.2009005,16.9796496 47.5645069,16.9795039" id="Fill-10" fill="#D65B31"></path>
                    <path d="M36.0762282,63.8638937 C36.0762282,62.8985433 35.2945513,62.1158622 34.3304395,62.1158622 L29.0930735,62.1158622 C28.1289617,62.1158622 27.3472848,62.8985433 27.3472848,63.8638937 L27.3472848,72.1670433 C27.3472848,73.1323937 28.1289617,73.9150748 29.0930735,73.9150748 L34.3304395,73.9150748 C35.2945513,73.9150748 36.0762282,73.1323937 36.0762282,72.1670433 L36.0762282,63.8638937 Z" id="Fill-12" fill="#FA8780"></path>
                    <path d="M74.777526,63.8638937 C74.777526,62.8985433 73.9958492,62.1158622 73.0317374,62.1158622 L67.7943714,62.1158622 C66.8302596,62.1158622 66.0485827,62.8985433 66.0485827,63.8638937 L66.0485827,72.1670433 C66.0485827,73.1323937 66.8302596,73.9150748 67.7943714,73.9150748 L73.0317374,73.9150748 C73.9958492,73.9150748 74.777526,73.1323937 74.777526,72.1670433 L74.777526,63.8638937 Z" id="Fill-13" fill="#FA8780"></path>
                </g>
                <g id="piggy" transform="translate(115.000000, 49.000000) scale(-1, 1) translate(-115.000000, -49.000000) translate(83.000000, 24.000000)">
                    <path d="M19.991581,41.9701772 C19.991581,41.3179134 19.4649776,40.7890748 18.8154708,40.7890748 L15.28714,40.7890748 C14.6376331,40.7890748 14.1110297,41.3179134 14.1110297,41.9701772 L14.1110297,47.5804134 C14.1110297,48.2326772 14.6376331,48.7615157 15.28714,48.7615157 L18.8154708,48.7615157 C19.4649776,48.7615157 19.991581,48.2326772 19.991581,47.5804134 L19.991581,41.9701772 L19.991581,41.9701772 Z" id="Fill-1" fill="#ED7461"></path>
                    <path d="M46.0640343,41.9701772 C46.0640343,41.3179134 45.5374309,40.7890748 44.887924,40.7890748 L41.3595933,40.7890748 C40.7100864,40.7890748 40.183483,41.3179134 40.183483,41.9701772 L40.183483,47.5804134 C40.183483,48.2326772 40.7100864,48.7615157 41.3595933,48.7615157 L44.887924,48.7615157 C45.5374309,48.7615157 46.0640343,48.2326772 46.0640343,47.5804134 L46.0640343,41.9701772 Z" id="Fill-3" fill="#ED7461"></path>
                    <path d="M16.6146646,1.30576772 C17.1150995,1.30576772 17.5694701,1.50744094 17.9009372,1.83450787 L17.9243614,1.85822835 L26.3864747,10.3561614 L14.7772864,10.3561614 L14.7772864,3.14996063 C14.7772864,2.13086614 15.5997795,1.30576772 16.6146646,1.30576772" id="Fill-5" fill="#ED7461"></path>
                    <polygon id="Fill-7" fill="#ED7461" points="0 32.0926181 3.92350383 32.0926181 3.92350383 22.1940945 0 22.1940945"></polygon>
                    <path d="M59.5063179,12.7255906 C60.1091724,12.3451772 60.7966089,12.1367126 61.4397452,12.1367126 C61.6596778,12.1367126 61.8740239,12.1607283 62.077785,12.2109252 C62.7753164,12.3816929 63.0975706,13.073622 63.101491,13.6441929 C63.1031571,13.9021654 63.0350407,14.763878 62.0726885,15.0140748 C61.2210867,15.2353346 60.5918677,14.6932087 60.2927436,14.3496063 C59.8995308,13.8992126 59.6311816,13.3247047 59.5063179,12.7255906 M2.58963798,27.1430118 C2.58963798,37.5332677 10.9770683,45.9563976 21.3233103,45.9563976 L43.7748631,45.9563976 L43.7748631,45.9516732 C53.9424343,45.7445866 62.1218891,37.4028543 62.1218891,27.1430118 C62.1218891,26.9949803 62.1199289,26.8463583 62.1165966,26.6989173 C62.0152551,22.298622 60.4087865,18.2716535 57.7949795,15.1173228 C57.960419,14.4378937 58.2842413,13.8331693 58.7567436,13.3379921 C58.9371786,13.9288386 59.2306181,14.4830709 59.6259871,14.9364173 C60.3641923,15.7825787 61.3373256,16.125 62.2948753,15.8760827 C63.3309305,15.6062008 63.9954328,14.7278543 63.987396,13.6378937 C63.9799473,12.5317913 63.2809458,11.5892717 62.2881127,11.3464567 C61.3904466,11.1265748 60.3516472,11.2851378 59.4310469,11.7495079 C59.4510407,11.4096457 59.5200392,11.0797244 59.6426487,10.7773622 C60.0593838,9.74655512 61.0354573,9.14084646 62.4644312,9.0257874 C62.7083761,9.00610236 62.8902812,8.79163386 62.8708753,8.54675197 C62.8508815,8.3019685 62.6363394,8.11998031 62.3933746,8.13858268 C60.6336196,8.28021654 59.3647926,9.09812992 58.8214297,10.4426181 C58.590324,11.0139764 58.5074083,11.6632874 58.5601372,12.3124016 C58.5225017,12.3435039 58.4854542,12.3747047 58.4485047,12.4064961 C57.8355553,12.9366142 57.384223,13.5910433 57.1063669,14.3333661 C53.7672919,10.7292323 49.0377605,8.44183071 43.7748631,8.33464567 L43.7748631,8.32972441 L30.0614175,8.32972441 L22.3167314,0.552854331 L22.2934052,0.528740157 C21.9617421,0.201968504 21.5083516,0 21.0071326,0 C19.9926395,0 19.1697544,0.825393701 19.1697544,1.84438976 L19.1697544,8.45433071 C9.98541133,9.5101378 2.81858744,17.2355315 2.59502848,26.6875984 C2.59120613,26.8391732 2.58963798,26.9910433 2.58963798,27.1430118" id="Fill-9" fill="#FA8780"></path>
                    <path d="M32.0434573,11.4726378 L32.0434573,11.4726378 L41.3281617,11.4726378 C42.2466058,11.4726378 42.9904956,12.2198819 42.9904956,13.1419291 C42.9904956,14.0637795 42.2466058,14.8109252 41.3281617,14.8109252 L32.0434573,14.8109252 C31.1248172,14.8109252 30.3805354,14.0637795 30.3805354,13.1419291 C30.3805354,12.2198819 31.1248172,11.4727362 32.0434573,11.4726378" id="Fill-10" fill="#D65B31"></path>
                    <path d="M14.5865822,19.1853642 C14.1347937,19.1853642 13.7688408,19.5532908 13.7688408,20.0068568 C13.7688408,21.0387335 12.9330949,21.8774661 11.9059983,21.8774661 C10.8793205,21.8774661 10.0441329,21.0387335 10.0441329,20.0068568 C10.0441329,19.5532908 9.67734261,19.1853642 9.22541455,19.1853642 C8.77376563,19.1853642 8.40627749,19.5532908 8.40627749,20.0068568 C8.40627749,21.9447441 9.97699966,23.5217129 11.9059983,23.5217129 C13.8363927,23.5217129 15.4062775,21.9447441 15.4062775,20.0068568 C15.4062775,19.5532908 15.0399059,19.1853642 14.5865822,19.1853642" id="Fill-11" fill="#D95B32" transform="translate(11.906277, 21.353539) scale(1, -1) translate(-11.906277, -21.353539) "></path>
                    <path d="M24.3039853,43.1512795 C24.3039853,42.4990157 23.7773819,41.9701772 23.127875,41.9701772 L19.5995443,41.9701772 C18.9500374,41.9701772 18.423434,42.4990157 18.423434,43.1512795 L18.423434,48.7615157 C18.423434,49.4137795 18.9500374,49.9426181 19.5995443,49.9426181 L23.127875,49.9426181 C23.7773819,49.9426181 24.3039853,49.4137795 24.3039853,48.7615157 L24.3039853,43.1512795 Z" id="Fill-12" fill="#FA8780"></path>
                    <path d="M50.3764386,43.1512795 C50.3764386,42.4990157 49.8498352,41.9701772 49.2003283,41.9701772 L45.6719975,41.9701772 C45.0224907,41.9701772 44.4958873,42.4990157 44.4958873,43.1512795 L44.4958873,48.7615157 C44.4958873,49.4137795 45.0224907,49.9426181 45.6719975,49.9426181 L49.2003283,49.9426181 C49.8498352,49.9426181 50.3764386,49.4137795 50.3764386,48.7615157 L50.3764386,43.1512795 Z" id="Fill-13" fill="#FA8780"></path>
                </g>
                <g id="piggy-copy" transform="translate(32.000000, 49.000000) scale(-1, 1) translate(-32.000000, -49.000000) translate(0.000000, 24.000000)">
                    <path d="M19.991581,41.9701772 C19.991581,41.3179134 19.4649776,40.7890748 18.8154708,40.7890748 L15.28714,40.7890748 C14.6376331,40.7890748 14.1110297,41.3179134 14.1110297,41.9701772 L14.1110297,47.5804134 C14.1110297,48.2326772 14.6376331,48.7615157 15.28714,48.7615157 L18.8154708,48.7615157 C19.4649776,48.7615157 19.991581,48.2326772 19.991581,47.5804134 L19.991581,41.9701772 L19.991581,41.9701772 Z" id="Fill-1" fill="#ED7461"></path>
                    <path d="M46.0640343,41.9701772 C46.0640343,41.3179134 45.5374309,40.7890748 44.887924,40.7890748 L41.3595933,40.7890748 C40.7100864,40.7890748 40.183483,41.3179134 40.183483,41.9701772 L40.183483,47.5804134 C40.183483,48.2326772 40.7100864,48.7615157 41.3595933,48.7615157 L44.887924,48.7615157 C45.5374309,48.7615157 46.0640343,48.2326772 46.0640343,47.5804134 L46.0640343,41.9701772 Z" id="Fill-3" fill="#ED7461"></path>
                    <path d="M16.6146646,1.30576772 C17.1150995,1.30576772 17.5694701,1.50744094 17.9009372,1.83450787 L17.9243614,1.85822835 L26.3864747,10.3561614 L14.7772864,10.3561614 L14.7772864,3.14996063 C14.7772864,2.13086614 15.5997795,1.30576772 16.6146646,1.30576772" id="Fill-5" fill="#ED7461"></path>
                    <polygon id="Fill-7" fill="#ED7461" points="0 32.0926181 3.92350383 32.0926181 3.92350383 22.1940945 0 22.1940945"></polygon>
                    <path d="M59.5063179,12.7255906 C60.1091724,12.3451772 60.7966089,12.1367126 61.4397452,12.1367126 C61.6596778,12.1367126 61.8740239,12.1607283 62.077785,12.2109252 C62.7753164,12.3816929 63.0975706,13.073622 63.101491,13.6441929 C63.1031571,13.9021654 63.0350407,14.763878 62.0726885,15.0140748 C61.2210867,15.2353346 60.5918677,14.6932087 60.2927436,14.3496063 C59.8995308,13.8992126 59.6311816,13.3247047 59.5063179,12.7255906 M2.58963798,27.1430118 C2.58963798,37.5332677 10.9770683,45.9563976 21.3233103,45.9563976 L43.7748631,45.9563976 L43.7748631,45.9516732 C53.9424343,45.7445866 62.1218891,37.4028543 62.1218891,27.1430118 C62.1218891,26.9949803 62.1199289,26.8463583 62.1165966,26.6989173 C62.0152551,22.298622 60.4087865,18.2716535 57.7949795,15.1173228 C57.960419,14.4378937 58.2842413,13.8331693 58.7567436,13.3379921 C58.9371786,13.9288386 59.2306181,14.4830709 59.6259871,14.9364173 C60.3641923,15.7825787 61.3373256,16.125 62.2948753,15.8760827 C63.3309305,15.6062008 63.9954328,14.7278543 63.987396,13.6378937 C63.9799473,12.5317913 63.2809458,11.5892717 62.2881127,11.3464567 C61.3904466,11.1265748 60.3516472,11.2851378 59.4310469,11.7495079 C59.4510407,11.4096457 59.5200392,11.0797244 59.6426487,10.7773622 C60.0593838,9.74655512 61.0354573,9.14084646 62.4644312,9.0257874 C62.7083761,9.00610236 62.8902812,8.79163386 62.8708753,8.54675197 C62.8508815,8.3019685 62.6363394,8.11998031 62.3933746,8.13858268 C60.6336196,8.28021654 59.3647926,9.09812992 58.8214297,10.4426181 C58.590324,11.0139764 58.5074083,11.6632874 58.5601372,12.3124016 C58.5225017,12.3435039 58.4854542,12.3747047 58.4485047,12.4064961 C57.8355553,12.9366142 57.384223,13.5910433 57.1063669,14.3333661 C53.7672919,10.7292323 49.0377605,8.44183071 43.7748631,8.33464567 L43.7748631,8.32972441 L30.0614175,8.32972441 L22.3167314,0.552854331 L22.2934052,0.528740157 C21.9617421,0.201968504 21.5083516,0 21.0071326,0 C19.9926395,0 19.1697544,0.825393701 19.1697544,1.84438976 L19.1697544,8.45433071 C9.98541133,9.5101378 2.81858744,17.2355315 2.59502848,26.6875984 C2.59120613,26.8391732 2.58963798,26.9910433 2.58963798,27.1430118" id="Fill-9" fill="#FA8780"></path>
                    <path d="M32.0434573,11.4726378 L32.0434573,11.4726378 L41.3281617,11.4726378 C42.2466058,11.4726378 42.9904956,12.2198819 42.9904956,13.1419291 C42.9904956,14.0637795 42.2466058,14.8109252 41.3281617,14.8109252 L32.0434573,14.8109252 C31.1248172,14.8109252 30.3805354,14.0637795 30.3805354,13.1419291 C30.3805354,12.2198819 31.1248172,11.4727362 32.0434573,11.4726378" id="Fill-10" fill="#D65B31"></path>
                    <path d="M14.5865822,19.1853642 C14.1347937,19.1853642 13.7688408,19.5532908 13.7688408,20.0068568 C13.7688408,21.0387335 12.9330949,21.8774661 11.9059983,21.8774661 C10.8793205,21.8774661 10.0441329,21.0387335 10.0441329,20.0068568 C10.0441329,19.5532908 9.67734261,19.1853642 9.22541455,19.1853642 C8.77376563,19.1853642 8.40627749,19.5532908 8.40627749,20.0068568 C8.40627749,21.9447441 9.97699966,23.5217129 11.9059983,23.5217129 C13.8363927,23.5217129 15.4062775,21.9447441 15.4062775,20.0068568 C15.4062775,19.5532908 15.0399059,19.1853642 14.5865822,19.1853642" id="Fill-11" fill="#D95B32" transform="translate(11.906277, 21.353539) scale(1, -1) translate(-11.906277, -21.353539) "></path>
                    <path d="M24.3039853,43.1512795 C24.3039853,42.4990157 23.7773819,41.9701772 23.127875,41.9701772 L19.5995443,41.9701772 C18.9500374,41.9701772 18.423434,42.4990157 18.423434,43.1512795 L18.423434,48.7615157 C18.423434,49.4137795 18.9500374,49.9426181 19.5995443,49.9426181 L23.127875,49.9426181 C23.7773819,49.9426181 24.3039853,49.4137795 24.3039853,48.7615157 L24.3039853,43.1512795 Z" id="Fill-12" fill="#FA8780"></path>
                    <path d="M50.3764386,43.1512795 C50.3764386,42.4990157 49.8498352,41.9701772 49.2003283,41.9701772 L45.6719975,41.9701772 C45.0224907,41.9701772 44.4958873,42.4990157 44.4958873,43.1512795 L44.4958873,48.7615157 C44.4958873,49.4137795 45.0224907,49.9426181 45.6719975,49.9426181 L49.2003283,49.9426181 C49.8498352,49.9426181 50.3764386,49.4137795 50.3764386,48.7615157 L50.3764386,43.1512795 Z" id="Fill-13" fill="#FA8780"></path>
                </g>
            </g>
        </g>
    </g>
</svg>
