<?xml version="1.0" encoding="UTF-8"?>
<svg width="332px" height="206px" viewBox="0 0 332 206" version="1.1" xmlns="http://www.w3.org/2000/svg" xmlns:xlink="http://www.w3.org/1999/xlink">
    <!-- Generator: Sketch 41.1 (35376) - http://www.bohemiancoding.com/sketch -->
    <title>Artboard 3</title>
    <desc>Created with Sketch.</desc>
    <defs>
        <polygon id="path-1" points="0 0.103107042 0 64.1688817 32.6639717 64.1688817 32.6639717 0.103107042 4.68265384e-20 0.103107042"></polygon>
        <polygon id="path-3" points="28.0700219 0.290549296 0.56377346 0.290549296 0.56377346 62.0943183 28.0700219 62.0943183 28.0700219 0.290549296"></polygon>
        <polygon id="path-5" points="29.0315501 0.290549296 0.329003066 0.290549296 0.329003066 62.0943183 29.0315501 62.0943183 29.0315501 0.290549296"></polygon>
        <polygon id="path-7" points="42.8428008 66.4737589 42.8428008 0.0294618628 0.649556113 0.0294618628 0.649556113 66.4737589"></polygon>
    </defs>
    <g id="animaties" stroke="none" stroke-width="1" fill="none" fill-rule="evenodd">
        <g id="Artboard-3">
            <g id="Group-8">
                <g id="Group-5" transform="translate(78.000000, 107.000000)">
                    <g id="plant-1" transform="translate(0.000000, 2.070423)">
                        <ellipse id="Oval-2" fill-opacity="0.2" fill="#000000" cx="31.0966981" cy="88.3380282" rx="23.495283" ry="7.5915493"></ellipse>
                        <polygon id="Fill-1" fill="#723D1A" points="28.1805189 88.2351972 33.603092 88.2351972 33.603092 51.9158451 28.1805189 51.9158451"></polygon>
                        <g id="Group-11" transform="translate(0.000000, 0.587310)">
                            <g id="Group-4">
                                <mask id="mask-2" fill="white">
                                    <use xlink:href="#path-1"></use>
                                </mask>
                                <g id="Clip-3"></g>
                                <path d="M4.98030896,0.103107042 L32.6639717,64.1688817 C32.6639717,64.1688817 -15.2449835,44.4274028 4.98030896,0.103107042" id="Fill-2" fill="#458E1C" mask="url(#mask-2)"></path>
                            </g>
                            <path d="M4.98030896,0.103107042 L32.6639717,64.1688817 C32.6639717,64.1688817 51.146467,15.8127831 4.98030896,0.103107042" id="Fill-5" fill="#57AB27"></path>
                            <path d="M65.2136458,23.0219944 L30.6610679,63.675431 C30.6610679,63.675431 27.9604925,24.2117972 65.2136458,23.0219944" id="Fill-7" fill="#458E1C"></path>
                            <path d="M65.2136458,23.0219944 L30.6610679,63.675431 C30.6610679,63.675431 70.0882259,59.9272761 65.2136458,23.0219944" id="Fill-9" fill="#57AB27"></path>
                        </g>
                    </g>
                    <g id="plant-2" transform="translate(87.801887, 0.000000)">
                        <ellipse id="Oval-2-Copy" fill-opacity="0.2" fill="#000000" cx="35.9339623" cy="90.4084507" rx="23.495283" ry="7.5915493"></ellipse>
                        <polygon id="Fill-1" fill="#723D1A" points="32.8104717 90.1179014 38.2337358 90.1179014 38.2337358 53.7985493 32.8104717 53.7985493"></polygon>
                        <g id="Group-12" transform="translate(0.000000, 0.399592)">
                            <g id="Group-4" transform="translate(29.023585, 0.000000)">
                                <mask id="mask-4" fill="white">
                                    <use xlink:href="#path-3"></use>
                                </mask>
                                <g id="Clip-3"></g>
                                <path d="M28.0700219,0.290135211 L5.16626722,62.0943183 C5.16626722,62.0943183 -14.6858649,17.4118394 28.0700219,0.290135211" id="Fill-2" fill="#458D1C" mask="url(#mask-4)"></path>
                            </g>
                            <g id="Group-7" transform="translate(33.860849, 0.000000)">
                                <mask id="mask-6" fill="white">
                                    <use xlink:href="#path-5"></use>
                                </mask>
                                <g id="Clip-6"></g>
                                <path d="M23.2327578,0.290135211 L0.329003066,62.0943183 C0.329003066,62.0943183 44.5250125,41.0843606 23.2327578,0.290135211" id="Fill-5" fill="#57AB27" mask="url(#mask-6)"></path>
                            </g>
                            <path d="M0.273305425,21.7114859 L35.8707323,61.456007 C35.8707323,61.456007 -3.64349646,58.7299507 0.273305425,21.7114859" id="Fill-8" fill="#458E1C"></path>
                            <path d="M0.273305425,21.7114859 L35.8707323,61.456007 C35.8707323,61.456007 37.5464988,21.9385423 0.273305425,21.7114859" id="Fill-10" fill="#57AB27"></path>
                        </g>
                    </g>
                    <g id="plant-3" transform="translate(173.530660, 11.732394)">
                        <ellipse id="Oval-2-Copy-2" fill-opacity="0.2" fill="#000000" cx="35.2429245" cy="78.6760563" rx="23.495283" ry="7.5915493"></ellipse>
                        <polygon id="Fill-1" fill="#723D1A" points="32.8104717 78.0942676 38.2337358 78.0942676 38.2337358 41.7749155 32.8104717 41.7749155"></polygon>
                        <g id="Group-10" transform="translate(0.000000, 0.108352)">
                            <path d="M79.0043403,0.582616901 L34.5381351,49.2748141 C34.5381351,49.2748141 32.9397649,0.416983099 79.0043403,0.582616901" id="Fill-2" fill="#458E1C"></path>
                            <path d="M79.0043403,0.582616901 L34.5381351,49.2748141 C34.5381351,49.2748141 83.4000314,46.3762225 79.0043403,0.582616901" id="Fill-4" fill="#57AB27"></path>
                            <path d="M0.273305425,9.97909155 L35.8707323,49.7236127 C35.8707323,49.7236127 -3.64349646,46.9975563 0.273305425,9.97909155" id="Fill-6" fill="#458E1C"></path>
                            <path d="M0.273305425,9.97909155 L35.8707323,49.7236127 C35.8707323,49.7236127 37.5464988,10.2061479 0.273305425,9.97909155" id="Fill-8" fill="#57AB27"></path>
                        </g>
                    </g>
                </g>
                <g id="gieter" transform="translate(60.811183, 60.811183) scale(-1, 1) rotate(-45.000000) translate(-60.811183, -60.811183) translate(10.311183, 25.311183)">
                    <polygon id="Fill-1" fill="#394975" points="16.9781576 -8.20664703e-05 0.00352885822 12.3993409 0.000246199411 12.4370915 14.7221503 14.7300287 17.0159082 0.00648325115"></polygon>
                    <polygon id="Fill-2" fill="#394975" points="56.6851986 61.6877244 51.8769241 65.5719304 8.68616142 12.7055309 13.4936152 8.81968356"></polygon>
                    <polygon id="Fill-3" fill="#394975" points="36.9348356 70.0338024 58.0964957 70.0338024 58.0964957 3.58950534 36.9348356 3.58950534"></polygon>
                    <g id="Group-6" transform="translate(57.446529, 3.559961)">
                        <mask id="mask-8" fill="white">
                            <use xlink:href="#path-7"></use>
                        </mask>
                        <g id="Clip-5"></g>
                        <path d="M22.7549806,51.4662635 L22.7549806,15.0369573 C31.3342094,16.6667974 37.8215638,24.1980374 37.8215638,33.2516104 C37.8215638,42.3027214 31.3342094,49.837244 22.7549806,51.4662635 M22.7549806,9.94062948 L22.7549806,0.0294618628 L0.649556113,0.0294618628 L0.649556113,66.4737589 L22.7549806,66.4737589 L22.7549806,56.5584879 C34.1211867,54.876946 42.8432112,45.0839541 42.8432112,33.2516104 C42.8432112,21.4168047 34.1211867,11.6238128 22.7549806,9.94062948" id="Fill-4" fill="#132862" mask="url(#mask-8)"></path>
                    </g>
                </g>
                <path d="M119.5,99.8114525 C120.429236,99.8114525 124,99.6564246 124,95.5437616 C124,91.4315642 119.5,86 119.5,86 C119.5,86 115,91.4315642 115,95.5437616 C115,99.6564246 118.570764,99.8114525 119.5,99.8114525" id="Page-1" fill="#80DEEA"></path>
                <path d="M129.5,118.811453 C130.429236,118.811453 134,118.656425 134,114.543762 C134,110.431564 129.5,105 129.5,105 C129.5,105 125,110.431564 125,114.543762 C125,118.656425 128.570764,118.811453 129.5,118.811453" id="Page-1-Copy" fill="#80DEEA"></path>
            </g>
        </g>
    </g>
</svg>