<svg class="usp--svg svg--robot" width="177px" height="337px" viewBox="0 0 177 337" version="1.1" xmlns="http://www.w3.org/2000/svg" xmlns:xlink="http://www.w3.org/1999/xlink">
    <!-- Generator: Sketch 41.1 (35376) - http://www.bohemiancoding.com/sketch -->
    <title>Artboard</title>
    <desc>Created with Sketch.</desc>
    <defs></defs>
    <g id="animaties" stroke="none" stroke-width="1" fill="none" fill-rule="evenodd">
        <g id="Artboard">
            <g id="Group-3">
                <polyline id="Rectangle-2" fill="#E2E2E2" points="90.5404775 153.034523 71.5401013 151.037503 52.0237694 336.008984 71.0012366 336.008984 90.5404775 153.034523"></polyline>
                <g id="Group-14" transform="translate(88.391832, 88.977297) rotate(6.000000) translate(-88.391832, -88.977297) translate(8.498047, 8.070953)">
                    <path d="M79.893785,161.812687 C124.017904,161.812687 159.78757,125.343911 159.78757,80.748014 C159.78757,36.1521173 124.017904,1.56215801e-14 79.893785,1.56215801e-14 C35.7696659,1.56215801e-14 -1.88005264e-13,36.1521173 -1.88005264e-13,80.748014 C-1.88005264e-13,125.343911 35.7696659,161.812687 79.893785,161.812687 Z" id="Oval-4" fill="#FFFFFF"></path>
                    <g id="robot" transform="translate(42.923328, 26.282687)">
                        <g id="Capa_1">
                            <g id="Group">
                                <path d="M31.4420229,29.8794667 C32.403383,29.8794667 33.1823562,29.0894254 33.1823562,28.1149313 L33.1823562,26.2327601 C33.1823562,25.258266 32.403383,24.4682247 31.4420229,24.4682247 C30.4806627,24.4682247 29.7016895,25.258266 29.7016895,26.2327601 L29.7016895,28.1149313 C29.7016895,29.0894254 30.4806627,29.8794667 31.4420229,29.8794667 L31.4420229,29.8794667 Z" id="Shape" fill="#000000"></path>
                                <path d="M42.5801564,29.8794667 C43.5415166,29.8794667 44.3204898,29.0894254 44.3204898,28.1149313 L44.3204898,26.2327601 C44.3204898,25.258266 43.5415166,24.4682247 42.5801564,24.4682247 C41.6187963,24.4682247 40.839823,25.258266 40.839823,26.2327601 L40.839823,28.1149313 C40.839823,29.0894254 41.6187963,29.8794667 42.5801564,29.8794667 L42.5801564,29.8794667 Z" id="Shape" fill="#000000"></path>
                                <path d="M73.060123,73.591009 L70.3094681,72.1965555 L70.3094681,55.9395376 C72.465161,55.201256 74.0221793,53.1327499 74.0221793,50.7009848 C74.0221793,47.6523381 71.5759667,45.1721071 68.5691347,45.1721071 L61.0276901,45.1721071 L61.0276901,43.1723003 C61.0276901,42.1978062 60.2487169,41.4077649 59.2873567,41.4077649 L55.4586233,41.4077649 L55.4586233,31.8792735 C55.4586233,25.7504538 52.5360235,20.3008625 48.0299523,16.8875452 C48.0306485,16.865665 48.033201,16.84402 48.033201,16.8219045 L48.033201,10.7674305 C50.1888939,10.0291489 51.7459121,7.9606428 51.7459121,5.5288777 C51.7459121,2.48023101 49.2996996,0 46.2928676,0 C43.2860356,0 40.839823,2.48023101 40.839823,5.5288777 C40.839823,7.9606428 42.3968413,10.0291489 44.5525342,10.7674305 L44.5525342,14.8162159 C42.2483328,13.7650233 39.6972362,13.1751979 37.0110896,13.1751979 C34.3249431,13.1751979 31.7738464,13.7650233 29.469645,14.8162159 L29.469645,10.7674305 C31.625338,10.0291489 33.1823562,7.9606428 33.1823562,5.5288777 C33.1823562,2.48023101 30.7361436,0 27.7293117,0 C24.7224797,0 22.2762671,2.48023101 22.2762671,5.5288777 C22.2762671,7.9606428 23.8332854,10.0291489 25.9889783,10.7674305 L25.9889783,16.8219045 C25.9889783,16.84402 25.9915308,16.865665 25.9922269,16.8875452 C21.4861558,20.3008625 18.5635559,25.7504538 18.5635559,31.8792735 L18.5635559,41.4077649 L14.7348225,41.4077649 C13.7734624,41.4077649 12.9944891,42.1978062 12.9944891,43.1723003 L12.9944891,45.1721071 L5.45304455,45.1721071 C2.44621258,45.1721071 0,47.6523381 0,50.7009848 C0,53.1327499 1.55701825,55.201256 3.71271119,55.9395376 L3.71271119,72.1965555 L0.962056286,73.591009 C0.372663385,73.8898037 0,74.5008035 0,75.1692095 L0,80.8157229 C0,81.484129 0.372431341,82.0951288 0.962056286,82.3939234 L4.67476747,84.2760946 C4.92467934,84.4029058 5.19037024,84.4626648 5.45188433,84.4626648 C6.09023861,84.4626648 6.70492436,84.1050523 7.00983076,83.4869943 C7.43980913,82.6153138 7.09127836,81.5554162 6.23155368,81.1196936 L3.48066674,79.72524 L3.48066674,76.2599277 L5.45304455,75.2600243 L7.42542237,76.2599277 L7.42542237,78.9335518 C7.42542237,79.9080459 8.20439559,80.6980872 9.16575574,80.6980872 C10.1271159,80.6980872 10.9060891,79.9080459 10.9060891,78.9335518 L10.9060891,75.1692095 C10.9060891,74.5008035 10.5336578,73.8898037 9.94403282,73.591009 L7.19337792,72.1965555 L7.19337792,56.2298625 L12.9944891,56.2298625 L12.9944891,63.8761828 C12.9944891,70.0050025 15.917089,75.4545937 20.4231601,78.8679111 C20.422464,78.8897913 20.4199115,78.9114363 20.4199115,78.9335518 L20.4199115,90.2265786 C20.4199115,92.6583437 21.9769298,94.7268498 24.1326227,95.4651314 L24.1326227,97.8728988 L20.3038893,97.8728988 C19.6525405,97.8728988 19.0559542,98.2413338 18.757313,98.8281007 L15.4112321,105.401583 L14.7348225,105.401583 C13.7734624,105.401583 12.9944891,106.191625 12.9944891,107.166119 C12.9944891,108.140613 13.7734624,108.930654 14.7348225,108.930654 L31.4420229,108.930654 C32.403383,108.930654 33.1823562,108.140613 33.1823562,107.166119 L33.1823562,99.6374342 C33.1823562,98.6629401 32.403383,97.8728988 31.4420229,97.8728988 L27.6132894,97.8728988 L27.6132894,95.4651314 C29.7689824,94.7268498 31.3260006,92.6583437 31.3260006,90.2265786 L31.3260006,82.5771998 C31.364752,82.5774351 31.4030394,82.5802584 31.4420229,82.5802584 L42.5801564,82.5802584 C42.6191399,82.5802584 42.6574272,82.5774351 42.6961786,82.5771998 L42.6961786,90.2265786 C42.6961786,92.6583437 44.2531969,94.7268498 46.4088898,95.4651314 L46.4088898,97.8728988 L42.5801564,97.8728988 C41.6187963,97.8728988 40.839823,98.6629401 40.839823,99.6374342 L40.839823,107.166119 C40.839823,108.140613 41.6187963,108.930654 42.5801564,108.930654 L59.2873567,108.930654 C60.2487169,108.930654 61.0276901,108.140613 61.0276901,107.166119 C61.0276901,106.191625 60.2487169,105.401583 59.2873567,105.401583 L58.6109472,105.401583 L55.2648662,98.8281007 C54.966225,98.2413338 54.3696387,97.8728988 53.71829,97.8728988 L49.8895566,97.8728988 L49.8895566,95.4651314 C52.0452495,94.7268498 53.6022677,92.6583437 53.6022677,90.2265786 L53.6022677,78.9335518 C53.6022677,78.9114363 53.5997153,78.8897913 53.5990191,78.8679111 C58.1050903,75.4545937 61.0276901,70.0050025 61.0276901,63.8761828 L61.0276901,56.2298625 L66.8288013,56.2298625 L66.8288013,72.1965555 L64.0781464,73.591009 C63.4887535,73.8898037 63.1160902,74.5008035 63.1160902,75.1692095 L63.1160902,78.9335518 C63.1160902,79.9080459 63.8950634,80.6980872 64.8564235,80.6980872 C65.8177837,80.6980872 66.5967569,79.9080459 66.5967569,78.9335518 L66.5967569,76.2596924 L68.5691347,75.259789 L70.5415125,76.2596924 L70.5415125,79.7250048 L67.7908576,81.1194583 C66.931365,81.5551809 66.5828342,82.6150785 67.0125805,83.486759 C67.3172549,84.1050523 67.9321727,84.4626648 68.570527,84.4624295 C68.8320411,84.4624295 69.0974999,84.4024353 69.3476438,84.2758593 L73.060355,82.3936882 C73.6497479,82.0948935 74.0224113,81.4838937 74.0224113,80.8154877 L74.0224113,75.1689743 C74.0221793,74.5008035 73.6497479,73.8898037 73.060123,73.591009 L73.060123,73.591009 Z M46.2928676,3.52907087 C47.3804599,3.52907087 48.2652454,4.42616069 48.2652454,5.5288777 C48.2652454,6.63159471 47.3804599,7.52868452 46.2928676,7.52868452 C45.2052753,7.52868452 44.3204898,6.63159471 44.3204898,5.5288777 C44.3204898,4.42616069 45.2052753,3.52907087 46.2928676,3.52907087 L46.2928676,3.52907087 Z M27.7293117,3.52907087 C28.816904,3.52907087 29.7016895,4.42616069 29.7016895,5.5288777 C29.7016895,6.63159471 28.816904,7.52868452 27.7293117,7.52868452 C26.6417193,7.52868452 25.7569338,6.63159471 25.7569338,5.5288777 C25.7569338,4.42616069 26.6417193,3.52907087 27.7293117,3.52907087 L27.7293117,3.52907087 Z M29.7016895,105.401583 L19.3281424,105.401583 L21.3641004,101.40197 L29.7016895,101.40197 L29.7016895,105.401583 L29.7016895,105.401583 Z M54.6940369,105.401583 L44.3204898,105.401583 L44.3204898,101.40197 L52.6580789,101.40197 L54.6940369,105.401583 L54.6940369,105.401583 Z M68.5691347,52.7007917 C67.4815424,52.7007917 66.5967569,51.8037018 66.5967569,50.7009848 C66.5967569,49.5982678 67.4815424,48.701178 68.5691347,48.701178 C69.656727,48.701178 70.5415125,49.5982678 70.5415125,50.7009848 C70.5415125,51.8037018 69.656727,52.7007917 68.5691347,52.7007917 L68.5691347,52.7007917 Z M37.0110896,16.7042688 C45.2637505,16.7042688 51.9779566,23.5118465 51.9779566,31.8792735 L51.9779566,33.8790804 L22.0442227,33.8790804 L22.0442227,31.8792735 C22.0442227,23.5118465 28.7584288,16.7042688 37.0110896,16.7042688 L37.0110896,16.7042688 Z M22.0442227,37.4081512 L51.9779566,37.4081512 L51.9779566,41.4077649 L22.0442227,41.4077649 L22.0442227,37.4081512 L22.0442227,37.4081512 Z M5.45304455,48.701178 C6.54063689,48.701178 7.42542237,49.5982678 7.42542237,50.7009848 C7.42542237,51.8037018 6.54063689,52.7007917 5.45304455,52.7007917 C4.36545222,52.7007917 3.48066674,51.8037018 3.48066674,50.7009848 C3.48066674,49.5982678 4.36545222,48.701178 5.45304455,48.701178 L5.45304455,48.701178 Z M10.5355141,52.7007917 C10.7738238,52.0801457 10.9060891,51.4060932 10.9060891,50.7009848 C10.9060891,49.9958765 10.7738238,49.3218239 10.5355141,48.701178 L12.9944891,48.701178 L12.9944891,52.7007917 L10.5355141,52.7007917 L10.5355141,52.7007917 Z M25.8729561,92.2263854 C24.7853637,92.2263854 23.9005783,91.3292956 23.9005783,90.2265786 C23.9005783,89.1238616 24.7853637,88.2267718 25.8729561,88.2267718 C26.9605484,88.2267718 27.8453339,89.1238616 27.8453339,90.2265786 C27.8453339,91.3292956 26.9605484,92.2263854 25.8729561,92.2263854 L25.8729561,92.2263854 Z M27.8453339,85.0734293 C27.2332006,84.8318056 26.5683933,84.6977009 25.8729561,84.6977009 C25.1775189,84.6977009 24.5127115,84.8318056 23.9005783,85.0734293 L23.9005783,80.9392404 C25.1489774,81.5088324 26.4690783,81.9438493 27.8453339,82.2207637 L27.8453339,85.0734293 L27.8453339,85.0734293 Z M16.4751559,63.8761828 L16.4751559,44.9368357 L35.2707563,44.9368357 L35.2707563,50.8186205 L29.5856673,50.8186205 C25.5552872,50.8186205 22.2762671,54.1432406 22.2762671,58.2296694 C22.2762671,62.3160982 25.5552872,65.6407182 29.5856673,65.6407182 L35.2707563,65.6407182 L35.2707563,79.0511875 L31.4420229,79.0511875 C23.189362,79.0511875 16.4751559,72.2436098 16.4751559,63.8761828 L16.4751559,63.8761828 Z M29.5856673,62.1116473 C27.4745269,62.1116473 25.7569338,60.3701685 25.7569338,58.2296694 C25.7569338,56.0891702 27.4745269,54.3476914 29.5856673,54.3476914 L44.436512,54.3476914 C46.5476524,54.3476914 48.2652454,56.0891702 48.2652454,58.2296694 C48.2652454,60.3701685 46.5476524,62.1116473 44.436512,62.1116473 L29.5856673,62.1116473 L29.5856673,62.1116473 Z M48.1492232,92.2263854 C47.0616309,92.2263854 46.1768454,91.3292956 46.1768454,90.2265786 C46.1768454,89.1238616 47.0616309,88.2267718 48.1492232,88.2267718 C49.2368155,88.2267718 50.121601,89.1238616 50.121601,90.2265786 C50.121601,91.3292956 49.2368155,92.2263854 48.1492232,92.2263854 L48.1492232,92.2263854 Z M50.121601,85.0734293 C49.5094677,84.8318056 48.8446604,84.6977009 48.1492232,84.6977009 C47.453786,84.6977009 46.7889786,84.8318056 46.1768454,85.0734293 L46.1768454,82.2207637 C47.553101,81.9438493 48.8732019,81.5088324 50.121601,80.9392404 L50.121601,85.0734293 L50.121601,85.0734293 Z M57.5470234,63.8761828 C57.5470234,72.2436098 50.8328172,79.0511875 42.5801564,79.0511875 L38.751423,79.0511875 L38.751423,65.6407182 L44.436512,65.6407182 C48.466892,65.6407182 51.7459121,62.3160982 51.7459121,58.2296694 C51.7459121,54.1432406 48.466892,50.8186205 44.436512,50.8186205 L38.751423,50.8186205 L38.751423,44.9368357 L57.5470234,44.9368357 L57.5470234,63.8761828 L57.5470234,63.8761828 Z M61.0276901,48.701178 L63.4866651,48.701178 C63.2483555,49.3218239 63.1160902,49.9958765 63.1160902,50.7009848 C63.1160902,51.4060932 63.2483555,52.0801457 63.4866651,52.7007917 L61.0276901,52.7007917 L61.0276901,48.701178 L61.0276901,48.701178 Z" id="Shape" fill="#4A4A4A"></path>
                            </g>
                        </g>
                    </g>
                    <g id="rounded-block-sign" transform="translate(-0.000000, 0.000000)" fill="#F44336">
                        <g id="Capa_1" transform="translate(-0.000000, 0.000000)">
                            <g id="block" transform="translate(-0.000000, 0.000000)">
                                <path d="M79.893785,3.12431601e-15 C35.9522033,3.12431601e-15 -2.89238868e-15,36.3366063 -2.89238868e-15,80.748014 C-2.89238868e-15,125.159422 35.9522033,161.496028 79.893785,161.496028 C123.835367,161.496028 159.78757,125.159422 159.78757,80.748014 C159.78757,36.3366063 123.835367,3.12431601e-15 79.893785,3.12431601e-15 L79.893785,3.12431601e-15 Z M15.978757,80.748014 C15.978757,45.2188878 44.7405196,16.1496028 79.893785,16.1496028 C94.2746663,16.1496028 107.85661,20.9944836 119.04174,29.8767652 L29.5607005,120.314541 C20.7723841,109.009819 15.978757,95.2826565 15.978757,80.748014 L15.978757,80.748014 Z M79.893785,145.346425 C65.5129037,145.346425 51.9309603,140.501544 40.7458304,131.619263 L130.22687,41.1814871 C139.015186,52.4862091 143.808813,66.2133715 143.808813,80.748014 C143.808813,116.27714 115.04705,145.346425 79.893785,145.346425 L79.893785,145.346425 Z" id="Shape"></path>
                            </g>
                        </g>
                    </g>
                </g>
            </g>
        </g>
    </g>
</svg>
