<?xml version="1.0" encoding="UTF-8"?>
<svg width="228px" height="129px" viewBox="0 0 228 129" version="1.1" xmlns="http://www.w3.org/2000/svg" xmlns:xlink="http://www.w3.org/1999/xlink">
    <!-- Generator: Sketch 41.1 (35376) - http://www.bohemiancoding.com/sketch -->
    <title>Artboard 2</title>
    <desc>Created with Sketch.</desc>
    <defs></defs>
    <g id="animaties" stroke="none" stroke-width="1" fill="none" fill-rule="evenodd">
        <g id="Artboard-2">
            <path d="M114.740734,102.356471 C114.997687,101.733706 114.648332,101.021071 113.995188,100.853988 C111.7383,100.270463 107.053642,98.3679932 104.929661,92.3998331 C102.237343,84.8355224 87.3327652,55.3871141 48.4707393,63.3552091 C44.207587,64.2298641 41.2469239,68.1196109 41.5734955,72.4599759 C42.0570241,78.8964753 43.117749,88.3873055 45.3974216,95.6946625 C45.3974216,95.6946625 39.530524,90.8669716 34.7990325,88.3708503 C33.092759,87.4708796 31.0371297,88.7037509 31.0105483,90.6315362 C30.9409303,95.7604832 31.1611763,105.15638 33.3573073,111.497946 C33.9838692,113.305482 36.2774654,113.849768 37.635649,112.50171 C40.1532886,110.000526 44.0215171,106.284191 46.8923097,104.086794 C46.8923097,104.086794 38.6925766,119.235668 46.4796649,127.221484 C47.7808884,128.553086 49.7403182,129.007502 51.5111467,128.42904 C56.0692261,126.940481 65.5714484,123.898808 67.4169579,123.795014 C69.8624479,123.659575 80.8722161,125.155729 86.9884726,116.591451 C86.9884726,116.591451 94.7363217,116.457278 99.0855472,110.611898 C102.260127,106.344949 109.852285,105.627251 113.72178,105.551304 C114.653395,105.533583 115.158442,104.453871 114.569853,103.732376 L114.307836,103.408335 L114.740734,102.356471 Z" id="Fill-1" fill-opacity="0.2" fill="#222222" transform="translate(72.912770, 95.337773) scale(-1, 1) translate(-72.912770, -95.337773) "></path>
            <path d="M228,11.2657559 C226.779276,9.60947168 222.507464,10.3939133 219.804535,13.3583225 C217.101607,16.3227318 213.875717,16.3227318 213.875717,16.3227318 C214.224598,15.7997707 213.440157,13.6198031 211.34759,12.2249994 C209.255023,10.8294734 208.644661,2.80881064 195.218141,0.628843039 C181.790899,-1.55040224 175.252441,2.63400874 175.252441,2.63400874 C166.359213,6.03470041 165.399969,11.9635189 165.051088,14.3175661 C164.702929,16.6716133 162,17.5434558 162,18.0664169 C162,18.589378 163.917765,19.897503 163.917765,19.897503 C163.917765,19.897503 163.220724,20.0715826 163.220724,20.9434252 C163.220724,21.8152678 165.48737,21.4663863 165.48737,21.4663863 C168.883728,26.406346 173.21477,29.1583926 177.220768,30.6810472 C178.239242,32.7584451 181.676772,38.9032378 186.324914,38.0321176 C186.324914,38.0321176 188.413146,36.6380362 185.362058,32.4492913 C187.460404,32.594478 188.795255,32.4521806 188.795255,32.4521806 C208.615769,39.8335885 215.125334,25.47744 214.951254,23.6752468 C214.776452,21.8737758 211.289082,22.5130308 211.289082,22.5130308 C213.585343,20.8560242 217.189008,22.3382288 219.194173,25.390039 C221.199339,28.4418492 224.600031,30.1855344 224.600031,30.1855344 C224.600031,30.1855344 225.20967,29.5751723 224.163748,23.8204335 C223.117826,18.0664169 228,11.2657559 228,11.2657559" id="Fill-1" fill-opacity="0.2" fill="#000000" transform="translate(195.000000, 19.058054) scale(-1, 1) translate(-195.000000, -19.058054) "></path>
            <circle id="Oval-3" fill="#FFFFFF" cx="19.5" cy="64.5" r="7.5"></circle>
            <circle id="Oval" fill="#FFFFFF" cx="6" cy="36" r="6"></circle>
            <ellipse id="Oval-Copy" fill="#FFFFFF" cx="24" cy="15" rx="4" ry="4"></ellipse>
        </g>
    </g>
</svg>