<?xml version="1.0" encoding="utf-8"?>
<!-- Generator: Adobe Illustrator 16.0.4, SVG Export Plug-In . SVG Version: 6.00 Build 0)  -->
<!DOCTYPE svg PUBLIC "-//W3C//DTD SVG 1.1//EN" "http://www.w3.org/Graphics/SVG/1.1/DTD/svg11.dtd" [
	<!ENTITY ns_extend "http://ns.adobe.com/Extensibility/1.0/">
	<!ENTITY ns_ai "http://ns.adobe.com/AdobeIllustrator/10.0/">
	<!ENTITY ns_graphs "http://ns.adobe.com/Graphs/1.0/">
	<!ENTITY ns_vars "http://ns.adobe.com/Variables/1.0/">
	<!ENTITY ns_imrep "http://ns.adobe.com/ImageReplacement/1.0/">
	<!ENTITY ns_sfw "http://ns.adobe.com/SaveForWeb/1.0/">
	<!ENTITY ns_custom "http://ns.adobe.com/GenericCustomNamespace/1.0/">
	<!ENTITY ns_adobe_xpath "http://ns.adobe.com/XPath/1.0/">
]>
<svg version="1.1" id="Layer_1" xmlns:x="&ns_extend;" xmlns:i="&ns_ai;" xmlns:graph="&ns_graphs;"
	 xmlns="http://www.w3.org/2000/svg" xmlns:xlink="http://www.w3.org/1999/xlink" x="0px" y="0px" width="31.182px"
	 height="31.181px" viewBox="0.909 25.819 31.182 31.181" enable-background="new 0.909 25.819 31.182 31.181" xml:space="preserve"
	>
<metadata>
	<sfw  xmlns="&ns_sfw;">
		<slices></slices>
		<sliceSourceBounds  y="813" x="587.083" height="31.181" width="16.834" bottomLeftOrigin="true"></sliceSourceBounds>
	</sfw>
</metadata>
<title>facebook</title>
<desc>Created with Sketch.</desc>
<g id="Page-2">
	<g id="facebook">
		<path fill="#FFFFFF" d="M19.719,57h-8.171V43.862H8.083v-7.913h3.465v-2.448c0-3.824,2.583-7.682,8.354-7.682
			c2.033,0,3.522,0.197,3.537,0.199l1.409,0.183l-0.183,7.419L23.1,33.604c-0.067-0.001-1.472-0.013-2.999-0.013
			c-0.173,0-0.289,0.008-0.364,0.017c-0.009,0.091-0.018,0.238-0.018,0.48v1.863h5.198l-0.375,7.913h-4.823V57z M13.427,55.12h4.412
			V41.984h4.91l0.197-4.154h-5.107v-3.742c0-1.468,0.378-2.377,2.262-2.377c1.152,0,2.235,0.008,2.731,0.011l0.096-3.872
			c-0.485-0.052-1.61-0.152-3.025-0.152c-4.774,0-6.475,2.997-6.475,5.803v4.327H9.962v4.154h3.465V55.12z"/>
	</g>
</g>
</svg>
