<?xml version="1.0" encoding="utf-8"?>
<!-- Generator: Adobe Illustrator 16.0.4, SVG Export Plug-In . SVG Version: 6.00 Build 0)  -->
<!DOCTYPE svg PUBLIC "-//W3C//DTD SVG 1.1//EN" "http://www.w3.org/Graphics/SVG/1.1/DTD/svg11.dtd" [
	<!ENTITY ns_extend "http://ns.adobe.com/Extensibility/1.0/">
	<!ENTITY ns_ai "http://ns.adobe.com/AdobeIllustrator/10.0/">
	<!ENTITY ns_graphs "http://ns.adobe.com/Graphs/1.0/">
	<!ENTITY ns_vars "http://ns.adobe.com/Variables/1.0/">
	<!ENTITY ns_imrep "http://ns.adobe.com/ImageReplacement/1.0/">
	<!ENTITY ns_sfw "http://ns.adobe.com/SaveForWeb/1.0/">
	<!ENTITY ns_custom "http://ns.adobe.com/GenericCustomNamespace/1.0/">
	<!ENTITY ns_adobe_xpath "http://ns.adobe.com/XPath/1.0/">
]>
<svg version="1.1" id="Layer_1" xmlns:x="&ns_extend;" xmlns:i="&ns_ai;" xmlns:graph="&ns_graphs;"
	 xmlns="http://www.w3.org/2000/svg" xmlns:xlink="http://www.w3.org/1999/xlink" x="0px" y="0px" width="31.182px"
	 height="31.181px" viewBox="-0.591 -1.181 31.182 31.181" enable-background="new -0.591 -1.181 31.182 31.181"
	 xml:space="preserve">
<metadata>
	<sfw  xmlns="&ns_sfw;">
		<slices></slices>
		<sliceSourceBounds  y="824.75" x="577.909" height="35.107" width="35.181" bottomLeftOrigin="true"></sliceSourceBounds>
	</sfw>
</metadata>
<title>linkedin (1)</title>
<desc>Created with Sketch.</desc>
<g id="Page-2">
	<g id="Blog-pagina" transform="translate(-526.000000, -563.000000)">
		<g id="linkedin-_x28_1_x29_" transform="translate(526.000000, 563.000000)">
			<defs>
				<filter id="Adobe_OpacityMaskFilter" filterUnits="userSpaceOnUse" x="-2.591" y="-3.357" width="35.181" height="35.107">
					<feColorMatrix  type="matrix" values="1 0 0 0 0  0 1 0 0 0  0 0 1 0 0  0 0 0 1 0"/>
				</filter>
			</defs>
			<mask maskUnits="userSpaceOnUse" x="-2.591" y="-3.357" width="35.181" height="35.107" id="mask-2">
				<g filter="url(#Adobe_OpacityMaskFilter)">
					<path id="path-1" fill="#FFFFFF" d="M7.467,29.75H-0.1V8.51h7.567V29.75z M3.685,7.184c-2.357,0-4.275-1.917-4.275-4.271
						s1.918-4.27,4.275-4.27s4.273,1.916,4.273,4.27C7.958,5.268,6.042,7.184,3.685,7.184z M30.59,29.75h-7.557V19.404
						c0-3.098-0.377-4.571-2.517-4.571c-2.165,0-3.009,1.234-3.009,4.403V29.75H9.954V8.51h7.306v1.502
						c1.162-1.096,2.927-1.996,5.23-1.996c7.137,0,8.098,5.132,8.098,10.152V29.75H30.59L30.59,29.75z"/>
				</g>
			</mask>
			<g id="Capa_1" mask="url(#mask-2)">
				<g id="Shape">
					<path id="path-1_1_" fill="none" stroke="#FFFFFF" stroke-width="4" stroke-linecap="round" d="M7.467,29.75H-0.1V8.51h7.567
						V29.75z M3.685,7.184c-2.357,0-4.275-1.917-4.275-4.271s1.918-4.27,4.275-4.27s4.273,1.916,4.273,4.27
						C7.958,5.268,6.042,7.184,3.685,7.184z M30.59,29.75h-7.557V19.404c0-3.098-0.377-4.571-2.517-4.571
						c-2.165,0-3.009,1.234-3.009,4.403V29.75H9.954V8.51h7.306v1.502c1.162-1.096,2.927-1.996,5.23-1.996
						c7.137,0,8.098,5.132,8.098,10.152V29.75H30.59L30.59,29.75z"/>
				</g>
			</g>
		</g>
	</g>
</g>
</svg>
