<?xml version="1.0" encoding="utf-8"?>
<!-- Generator: Adobe Illustrator 16.0.4, SVG Export Plug-In . SVG Version: 6.00 Build 0)  -->
<!DOCTYPE svg PUBLIC "-//W3C//DTD SVG 1.1//EN" "http://www.w3.org/Graphics/SVG/1.1/DTD/svg11.dtd" [
	<!ENTITY ns_extend "http://ns.adobe.com/Extensibility/1.0/">
	<!ENTITY ns_ai "http://ns.adobe.com/AdobeIllustrator/10.0/">
	<!ENTITY ns_graphs "http://ns.adobe.com/Graphs/1.0/">
	<!ENTITY ns_vars "http://ns.adobe.com/Variables/1.0/">
	<!ENTITY ns_imrep "http://ns.adobe.com/ImageReplacement/1.0/">
	<!ENTITY ns_sfw "http://ns.adobe.com/SaveForWeb/1.0/">
	<!ENTITY ns_custom "http://ns.adobe.com/GenericCustomNamespace/1.0/">
	<!ENTITY ns_adobe_xpath "http://ns.adobe.com/XPath/1.0/">
]>
<svg version="1.1" id="Layer_1" xmlns:x="&ns_extend;" xmlns:i="&ns_ai;" xmlns:graph="&ns_graphs;"
	 xmlns="http://www.w3.org/2000/svg" xmlns:xlink="http://www.w3.org/1999/xlink" x="0px" y="0px" width="31.182px"
	 height="31.181px" viewBox="-3.091 0.819 31.182 31.181" enable-background="new -3.091 0.819 31.182 31.181" xml:space="preserve"
	>
<metadata>
	<sfw  xmlns="&ns_sfw;">
		<slices></slices>
		<sliceSourceBounds  y="825.5" x="583.354" height="31.181" width="24.292" bottomLeftOrigin="true"></sliceSourceBounds>
	</sfw>
</metadata>
<title>Artboard</title>
<desc>Created with Sketch.</desc>
<g id="Symbols">
	<g id="Artboard">
		<g id="placeholder-copy">
			<g id="Capa_1">
				<g id="Group">
					<path id="Shape" fill="#FFFFFF" d="M12.5,32c-0.245,0-0.479-0.101-0.648-0.278C11.382,31.223,0.354,19.459,0.354,12.965
						c0-6.697,5.448-12.146,12.146-12.146c6.697,0,12.146,5.449,12.146,12.146c0,6.496-11.028,18.259-11.497,18.757
						C12.979,31.899,12.745,32,12.5,32L12.5,32z M12.5,2.6C6.785,2.6,2.136,7.249,2.136,12.964c0,4.497,6.96,13.086,10.363,16.832
						c3.405-3.747,10.364-12.334,10.364-16.832C22.865,7.249,18.214,2.6,12.5,2.6L12.5,2.6z"/>
					<path id="Shape_1_" fill="#FFFFFF" d="M12.5,16.766c-2.833,0-5.137-2.304-5.137-5.137c0-2.833,2.304-5.137,5.137-5.137
						c2.832,0,5.138,2.305,5.138,5.137C17.638,14.461,15.333,16.766,12.5,16.766L12.5,16.766z M12.5,8.273
						c-1.851,0-3.356,1.504-3.356,3.355c0,1.851,1.505,3.356,3.356,3.356c1.85,0,3.355-1.505,3.355-3.356
						C15.854,9.778,14.35,8.273,12.5,8.273L12.5,8.273z"/>
				</g>
			</g>
		</g>
	</g>
</g>
</svg>
