<?xml version="1.0" encoding="UTF-8"?>
<svg width="33px" height="37px" viewBox="0 0 33 37" version="1.1" xmlns="http://www.w3.org/2000/svg" xmlns:xlink="http://www.w3.org/1999/xlink">
    <!-- Generator: Sketch 41.1 (35376) - http://www.bohemiancoding.com/sketch -->
    <title>mute</title>
    <desc>Created with Sketch.</desc>
    <defs></defs>
    <g id="Page-1" stroke="none" stroke-width="1" fill="none" fill-rule="evenodd">
        <g id="mute" stroke="#FFFFFF" stroke-width="2">
            <path d="M22.1106778,1.0044008 L21.9489489,1 C21.5883595,1 21.1753045,1.1114637 20.7032515,1.397721 C20.7032515,1.397721 11.5899804,9.3483595 11.1922593,9.7417485 L6.1854028,9.7417485 C4.9791061,9.7418173 4,10.7208546 4,11.92722 L4,25.3174361 C4,26.526002 4.9791061,27.5028389 6.1854028,27.5028389 L11.1922593,27.5028389 C11.5899804,27.8962279 20.7032515,35.5649411 20.7032515,35.5649411 C21.1753045,35.8555992 21.5883595,35.9670629 21.9489489,35.9670629 L22.1106778,35.9605305 C22.9193222,35.8840668 23.4962377,35.2065521 23.6688998,34.4919057 L23.6688998,2.4774263 C23.4984381,1.7583792 22.9193222,1.0809332 22.1106778,1.0044008 Z" id="Shape"></path>
        </g>
    </g>
</svg>