<?xml version="1.0" encoding="utf-8"?>
<!-- Generator: Adobe Illustrator 16.0.4, SVG Export Plug-In . SVG Version: 6.00 Build 0)  -->
<!DOCTYPE svg PUBLIC "-//W3C//DTD SVG 1.1//EN" "http://www.w3.org/Graphics/SVG/1.1/DTD/svg11.dtd" [
	<!ENTITY ns_extend "http://ns.adobe.com/Extensibility/1.0/">
	<!ENTITY ns_ai "http://ns.adobe.com/AdobeIllustrator/10.0/">
	<!ENTITY ns_graphs "http://ns.adobe.com/Graphs/1.0/">
	<!ENTITY ns_vars "http://ns.adobe.com/Variables/1.0/">
	<!ENTITY ns_imrep "http://ns.adobe.com/ImageReplacement/1.0/">
	<!ENTITY ns_sfw "http://ns.adobe.com/SaveForWeb/1.0/">
	<!ENTITY ns_custom "http://ns.adobe.com/GenericCustomNamespace/1.0/">
	<!ENTITY ns_adobe_xpath "http://ns.adobe.com/XPath/1.0/">
]>
<svg version="1.1" id="Layer_1" xmlns:x="&ns_extend;" xmlns:i="&ns_ai;" xmlns:graph="&ns_graphs;"
	 xmlns="http://www.w3.org/2000/svg" xmlns:xlink="http://www.w3.org/1999/xlink" x="0px" y="0px" width="31.182px"
	 height="31.181px" viewBox="0.409 0.819 31.182 31.181" enable-background="new 0.409 0.819 31.182 31.181" xml:space="preserve">
<metadata>
	<sfw  xmlns="&ns_sfw;">
		<slices></slices>
		<sliceSourceBounds  y="825.5" x="579.926" height="31.181" width="31.148" bottomLeftOrigin="true"></sliceSourceBounds>
	</sfw>
</metadata>
<title>Artboard 3</title>
<desc>Created with Sketch.</desc>
<g id="Symbols">
	<g id="Artboard-3">
		<g id="phone-receiver-copy" transform="translate(1.000000, 1.000000)">
			<g id="Capa_1">
				<path fill="#FFFFFF" d="M22.853,31c-0.443,0-1.114-0.069-2.05-0.213c-0.963-0.148-2.088-0.492-3.441-1.054
					c-1.316-0.547-2.821-1.374-4.473-2.454c-1.659-1.087-3.439-2.59-5.292-4.468c-1.465-1.445-2.706-2.861-3.68-4.198
					c-0.972-1.333-1.768-2.588-2.364-3.731c-0.601-1.148-1.059-2.211-1.363-3.158c-0.302-0.94-0.512-1.771-0.622-2.468
					C-0.549,8.53-0.593,7.96-0.568,7.516C-0.55,7.189-0.54,6.998-0.539,6.94l0.01-0.125c0.055-0.387,0.178-0.78,0.365-1.169
					c0.199-0.413,0.452-0.759,0.751-1.029l4.075-4.083C5.493-0.3,6.767-0.414,7.638,0.24c0.3,0.225,0.557,0.504,0.764,0.83
					l3.348,6.355c0.287,0.509,0.376,1.119,0.246,1.739c-0.122,0.578-0.387,1.076-0.79,1.479l-1.338,1.341
					c0.083,0.282,0.217,0.604,0.401,0.96c0.229,0.459,0.586,1.023,1.068,1.688c0.481,0.666,1.184,1.452,2.088,2.336
					c0.902,0.924,1.693,1.633,2.366,2.124c0.673,0.491,1.237,0.855,1.678,1.08c0.548,0.281,0.784,0.347,0.86,0.362l0.079,0.015
					l1.584-1.615c0.603-0.538,1.258-0.788,1.995-0.788c0.398,0,0.753,0.062,1.057,0.186h0.044l0.261,0.137L29.314,22
					c0.854,0.531,1.141,1.201,1.233,1.671c0.111,0.84-0.133,1.551-0.697,2.117l-4.117,4.091c-0.229,0.26-0.575,0.514-0.988,0.714
					c-0.389,0.188-0.783,0.312-1.17,0.366l-0.213,0.021C23.218,30.992,23.053,31,22.853,31z M1.409,7.045
					C1.404,7.153,1.395,7.346,1.379,7.625C1.367,7.832,1.378,8.229,1.493,8.951c0.095,0.599,0.28,1.331,0.553,2.177
					c0.27,0.841,0.685,1.8,1.234,2.851c0.552,1.058,1.296,2.23,2.212,3.486c0.913,1.252,2.084,2.587,3.483,3.968
					c1.766,1.789,3.438,3.204,4.981,4.214c1.551,1.017,2.949,1.785,4.153,2.286c1.188,0.493,2.194,0.805,2.988,0.927
					c1.59,0.243,1.841,0.201,2.067,0.179c0.067-0.007,0.125-0.012,0.169-0.015c0.178-0.028,0.366-0.092,0.562-0.187
					c0.183-0.089,0.325-0.188,0.423-0.298l4.153-4.13c0.153-0.154,0.172-0.272,0.153-0.423h-0.001c-0.002,0-0.038-0.143-0.322-0.32
					l-5.985-3.522c-0.001,0-0.083-0.046-0.331-0.046c-0.257,0-0.457,0.077-0.651,0.249l-1.713,1.751
					c-0.168,0.163-0.357,0.273-0.596,0.351c-0.18,0.064-0.346,0.097-0.502,0.097l-0.193-0.02l-0.387-0.078
					c-0.352-0.07-0.787-0.24-1.365-0.537c-0.531-0.271-1.184-0.689-1.939-1.241c-0.76-0.555-1.633-1.336-2.596-2.32
					c-0.967-0.947-1.742-1.817-2.288-2.572c-0.551-0.762-0.953-1.399-1.227-1.948c-0.328-0.635-0.541-1.208-0.642-1.74l-0.017-0.182
					c0-0.169,0.031-0.347,0.096-0.541c0.08-0.239,0.192-0.43,0.344-0.582l1.514-1.518c0.134-0.135,0.218-0.294,0.262-0.502
					c0.042-0.203-0.002-0.319-0.051-0.406L6.716,2.047C6.674,1.987,6.58,1.884,6.468,1.8C6.41,1.756,6.286,1.665,6.042,1.91
					L1.93,6.029C1.783,6.165,1.682,6.308,1.593,6.492C1.5,6.684,1.438,6.87,1.409,7.045z"/>
			</g>
		</g>
	</g>
</g>
</svg>
