<?xml version="1.0" encoding="utf-8"?>
<!-- Generator: Adobe Illustrator 16.0.4, SVG Export Plug-In . SVG Version: 6.00 Build 0)  -->
<!DOCTYPE svg PUBLIC "-//W3C//DTD SVG 1.1//EN" "http://www.w3.org/Graphics/SVG/1.1/DTD/svg11.dtd" [
	<!ENTITY ns_extend "http://ns.adobe.com/Extensibility/1.0/">
	<!ENTITY ns_ai "http://ns.adobe.com/AdobeIllustrator/10.0/">
	<!ENTITY ns_graphs "http://ns.adobe.com/Graphs/1.0/">
	<!ENTITY ns_vars "http://ns.adobe.com/Variables/1.0/">
	<!ENTITY ns_imrep "http://ns.adobe.com/ImageReplacement/1.0/">
	<!ENTITY ns_sfw "http://ns.adobe.com/SaveForWeb/1.0/">
	<!ENTITY ns_custom "http://ns.adobe.com/GenericCustomNamespace/1.0/">
	<!ENTITY ns_adobe_xpath "http://ns.adobe.com/XPath/1.0/">
]>
<svg version="1.1" id="Layer_1" xmlns:x="&ns_extend;" xmlns:i="&ns_ai;" xmlns:graph="&ns_graphs;"
	 xmlns="http://www.w3.org/2000/svg" xmlns:xlink="http://www.w3.org/1999/xlink" x="0px" y="0px" width="31.182px"
	 height="31.181px" viewBox="5.909 4.819 31.182 31.181" enable-background="new 5.909 4.819 31.182 31.181" xml:space="preserve">
<metadata>
	<sfw  xmlns="&ns_sfw;">
		<slices></slices>
		<sliceSourceBounds  y="823.5" x="579.909" height="25.746" width="31.181" bottomLeftOrigin="true"></sliceSourceBounds>
	</sfw>
</metadata>
<title>twitter</title>
<desc>Created with Sketch.</desc>
<g id="Page-2">
	<g id="twitter">
		<path fill="#FFFFFF" d="M17.735,36c-5.223,0-9.342-0.907-11.302-2.49l-0.062-0.056c-0.427-0.429-0.567-0.989-0.384-1.537
			c0.238-0.601,0.786-0.978,1.379-0.978c1.725-0.027,3.038-0.295,4.046-0.634c-1.884-0.746-3.172-2.15-3.912-4.25
			c-0.211-0.527-0.03-1.15,0.464-1.521c0.185-0.14,0.413-0.23,0.655-0.262c-1.021-1.126-1.779-2.43-2.188-3.804
			c-0.139-0.679,0.138-1.305,0.643-1.557c0.219-0.135,0.556-0.207,0.874-0.153c-1.098-2.177-1.084-4.564,0.099-6.832l0.77-1.544
			l1.254,1.257c2.875,3.021,5.46,4.445,9.953,5.413c0.355-3.758,3.43-6.746,7.161-6.798c1.441,0,3.229,0.833,4.31,1.42
			c0.952-0.308,2.105-0.794,3.303-1.308c0.133-0.068,0.329-0.114,0.528-0.114c0.344,0,0.679,0.138,0.918,0.378
			c0.375,0.375,0.477,0.909,0.27,1.428c-0.1,0.279-0.217,0.554-0.351,0.821c0.204,0.066,0.389,0.177,0.534,0.324
			c0.332,0.333,0.47,0.856,0.351,1.331c-0.453,1.469-1.31,2.627-2.445,3.338C34.457,27.896,26.946,36,17.735,36z M7.582,32.464
			c1.759,1.261,5.518,2.008,10.153,2.008c8.459,0,15.341-7.578,15.341-16.893v-0.623l0.422-0.211
			c0.884-0.443,1.576-1.258,1.974-2.313l-3.355,1.178l1.849-2.16c0.38-0.444,0.692-0.935,0.931-1.461
			c-0.954,0.407-1.854,0.777-2.656,1.051v0.208l-0.921,0.022l-0.319-0.121c-0.567-0.32-2.521-1.365-3.803-1.365
			c-3.126,0.044-5.677,2.734-5.677,5.996v1.127l-0.909-0.175c-5.191-1.001-8.214-2.522-11.374-5.757
			c-1.485,3.252,0.28,5.796,1.497,7.046l1.625,1.671l-2.299-0.384c-0.775-0.13-1.408-0.367-1.991-0.753
			c0.657,1.749,2.05,3.386,3.873,4.491l2.336,1.418h-2.733c-0.779,0-1.607-0.066-2.439-0.497c0.851,2.028,2.316,3.064,4.698,3.363
			l2.228,0.28l-1.936,1.137C12.224,31.849,10.149,32.396,7.582,32.464z"/>
	</g>
</g>
</svg>
