<?xml version="1.0" encoding="utf-8"?>
<!-- Generator: Adobe Illustrator 16.0.4, SVG Export Plug-In . SVG Version: 6.00 Build 0)  -->
<!DOCTYPE svg PUBLIC "-//W3C//DTD SVG 1.1//EN" "http://www.w3.org/Graphics/SVG/1.1/DTD/svg11.dtd" [
	<!ENTITY ns_extend "http://ns.adobe.com/Extensibility/1.0/">
	<!ENTITY ns_ai "http://ns.adobe.com/AdobeIllustrator/10.0/">
	<!ENTITY ns_graphs "http://ns.adobe.com/Graphs/1.0/">
	<!ENTITY ns_vars "http://ns.adobe.com/Variables/1.0/">
	<!ENTITY ns_imrep "http://ns.adobe.com/ImageReplacement/1.0/">
	<!ENTITY ns_sfw "http://ns.adobe.com/SaveForWeb/1.0/">
	<!ENTITY ns_custom "http://ns.adobe.com/GenericCustomNamespace/1.0/">
	<!ENTITY ns_adobe_xpath "http://ns.adobe.com/XPath/1.0/">
]>
<svg version="1.1" id="Layer_1" xmlns:x="&ns_extend;" xmlns:i="&ns_ai;" xmlns:graph="&ns_graphs;"
	 xmlns="http://www.w3.org/2000/svg" xmlns:xlink="http://www.w3.org/1999/xlink" x="0px" y="0px" width="16.871px"
	 height="31.181px" viewBox="7.155 25.819 16.871 31.181" enable-background="new 7.155 25.819 16.871 31.181" xml:space="preserve"
	>
<metadata>
	<sfw  xmlns="&ns_sfw;">
		<slices></slices>
		<sliceSourceBounds  y="813" x="586.155" height="31.181" width="16.871" bottomLeftOrigin="true"></sliceSourceBounds>
	</sfw>
</metadata>
<title>facebook</title>
<desc>Created with Sketch.</desc>
<g id="Page-2">
	<g id="facebook">
		<path fill="#57AB27" d="M18.838,57h-8.226V43.893H7.155v-7.967h3.457V33.52c0-3.833,2.589-7.701,8.373-7.701
			c2.028,0,3.516,0.196,3.529,0.198l1.442,0.188l-0.184,7.469l-1.599-0.014c-0.07-0.001-1.469-0.014-2.992-0.014
			c-0.15,0-0.255,0.006-0.328,0.014c-0.009,0.089-0.016,0.229-0.016,0.445v1.821h5.188l-0.378,7.968h-4.81V57z M12.562,55.051h4.327
			V41.945h4.899l0.193-4.069h-5.093v-3.771c0-1.446,0.39-2.408,2.293-2.408c1.123,0,2.179,0.007,2.689,0.01l0.093-3.791
			c-0.502-0.052-1.609-0.147-2.979-0.147c-4.736,0-6.423,2.971-6.423,5.751v4.355H9.104v4.068h3.457V55.051z"/>
	</g>
</g>
</svg>
