<?xml version="1.0" encoding="utf-8"?>
<!-- Generator: Adobe Illustrator 16.0.4, SVG Export Plug-In . SVG Version: 6.00 Build 0)  -->
<!DOCTYPE svg PUBLIC "-//W3C//DTD SVG 1.1//EN" "http://www.w3.org/Graphics/SVG/1.1/DTD/svg11.dtd" [
	<!ENTITY ns_extend "http://ns.adobe.com/Extensibility/1.0/">
	<!ENTITY ns_ai "http://ns.adobe.com/AdobeIllustrator/10.0/">
	<!ENTITY ns_graphs "http://ns.adobe.com/Graphs/1.0/">
	<!ENTITY ns_vars "http://ns.adobe.com/Variables/1.0/">
	<!ENTITY ns_imrep "http://ns.adobe.com/ImageReplacement/1.0/">
	<!ENTITY ns_sfw "http://ns.adobe.com/SaveForWeb/1.0/">
	<!ENTITY ns_custom "http://ns.adobe.com/GenericCustomNamespace/1.0/">
	<!ENTITY ns_adobe_xpath "http://ns.adobe.com/XPath/1.0/">
]>
<svg version="1.1" id="Layer_1" xmlns:x="&ns_extend;" xmlns:i="&ns_ai;" xmlns:graph="&ns_graphs;"
	 xmlns="http://www.w3.org/2000/svg" xmlns:xlink="http://www.w3.org/1999/xlink" x="0px" y="0px" width="28.347px"
	 height="31.181px" viewBox="1.417 4.819 28.347 31.181" enable-background="new 1.417 4.819 28.347 31.181" xml:space="preserve">
<metadata>
	<sfw  xmlns="&ns_sfw;">
		<slices></slices>
		<sliceSourceBounds  y="823.5" x="575.417" height="23.505" width="28.346" bottomLeftOrigin="true"></sliceSourceBounds>
	</sfw>
</metadata>
<title>twitter</title>
<desc>Created with Sketch.</desc>
<g id="Page-2">
	<g id="twitter">
		<path fill="#57AB27" d="M12.219,36c-4.725,0-8.462-0.83-10.254-2.276l-0.073-0.066c-0.439-0.441-0.583-1.021-0.394-1.588
			c0.25-0.629,0.818-1.018,1.433-1.018c1.233-0.021,2.225-0.179,3.028-0.396c-1.465-0.73-2.489-1.956-3.103-3.702
			c-0.222-0.55-0.033-1.206,0.485-1.596c0.101-0.076,0.214-0.139,0.334-0.186c-0.822-0.973-1.437-2.075-1.78-3.231
			c-0.147-0.719,0.148-1.374,0.683-1.641c0.134-0.084,0.331-0.147,0.538-0.168c-0.863-1.923-0.797-4.01,0.24-5.998l0.816-1.639
			l1.328,1.331c2.498,2.624,4.747,3.887,8.587,4.744c0.43-3.361,3.223-5.998,6.593-6.045c1.299,0,2.887,0.723,3.881,1.255
			c0.83-0.274,1.825-0.694,2.857-1.138c0.137-0.07,0.345-0.119,0.555-0.119c0.363,0,0.718,0.146,0.971,0.401
			c0.396,0.396,0.502,0.957,0.287,1.5c-0.066,0.187-0.142,0.372-0.225,0.554c0.127,0.065,0.243,0.15,0.344,0.251
			c0.35,0.353,0.493,0.901,0.364,1.396c-0.408,1.326-1.172,2.379-2.182,3.046C27.349,28.71,20.549,36,12.219,36z M3.817,32.801
			c1.712,0.884,4.8,1.415,8.402,1.415c7.463,0,13.534-6.696,13.534-14.925v-0.687l0.493-0.247c0.621-0.312,1.131-0.843,1.478-1.531
			l-3.276,1.151l2.15-2.52c0.205-0.239,0.386-0.493,0.543-0.759c-0.609,0.254-1.188,0.486-1.722,0.674v0.246l-1.07,0.02l-0.35-0.134
			c-1.027-0.579-2.435-1.196-3.304-1.196c-2.685,0.038-4.878,2.354-4.878,5.164v1.261l-1.062-0.204
			c-4.578-0.882-7.293-2.213-10.079-4.994c-1.055,2.671,0.403,4.757,1.42,5.801l1.896,1.948L5.31,22.838
			c-0.492-0.082-0.922-0.211-1.32-0.397c0.634,1.305,1.745,2.513,3.146,3.364l2.729,1.655H6.673c-0.564,0-1.157-0.038-1.76-0.246
			c0.758,1.423,1.963,2.167,3.81,2.398l2.598,0.327l-2.256,1.328C7.53,32.171,5.845,32.665,3.817,32.801z"/>
	</g>
</g>
</svg>
