<?xml version="1.0" encoding="UTF-8"?>
<svg width="30px" height="22px" viewBox="0 0 30 22" version="1.1" xmlns="http://www.w3.org/2000/svg" xmlns:xlink="http://www.w3.org/1999/xlink">
    <!-- Generator: Sketch 40.3 (33839) - http://www.bohemiancoding.com/sketch -->
    <title>Artboard 2</title>
    <desc>Created with Sketch.</desc>
    <defs></defs>
    <g id="Symbols" stroke="none" stroke-width="1" fill="none" fill-rule="evenodd">
        <g id="Artboard-2" fill="#132862">
            <g id="email-envelope-outline-shape-with-rounded-corners-copy">
                <g id="Capa_1">
                    <path d="M25.8125,0 L3.6875,0 C1.65107813,0 0,1.64175 0,3.66666667 L0,18.3333333 C0,20.35825 1.65107813,22 3.6875,22 L25.8125,22 C27.8489219,22 29.5,20.35825 29.5,18.3333333 L29.5,3.66666667 C29.5,1.64175 27.8489219,0 25.8125,0 L25.8125,0 Z M19.742875,9.78432813 L27.5482178,3.13310938 C27.6022627,3.30498438 27.65625,3.47685938 27.65625,3.66666667 L27.65625,18.3333333 C27.65625,18.4604635 27.6076211,18.5732708 27.5824424,18.6931823 L19.742875,9.78432813 L19.742875,9.78432813 Z M25.8125,1.83333333 C25.9349365,1.83333333 26.0429687,1.87991146 26.1582031,1.90317187 L14.75,11.6266562 L3.34179688,1.90317187 C3.45703125,1.87991146 3.56506348,1.83333333 3.6875,1.83333333 L25.8125,1.83333333 L25.8125,1.83333333 Z M1.91669336,18.6914063 C1.89145703,18.5714375 1.84375,18.4604635 1.84375,18.3333333 L1.84375,3.66666667 C1.84375,3.47685938 1.89865918,3.30498438 1.9527041,3.13310938 L9.75533887,9.78255208 L1.91669336,18.6914063 L1.91669336,18.6914063 Z M3.6875,20.1666667 C3.50116602,20.1666667 3.33188672,20.1129271 3.16174316,20.0610208 L11.1561279,10.9766823 L14.1504355,13.5279375 C14.3223652,13.6766094 14.5366436,13.75 14.75,13.75 C14.9633564,13.75 15.1776348,13.6766094 15.3495645,13.5279948 L18.3438721,10.9767396 L26.3382568,20.0610781 C26.1690352,20.1129271 25.9997559,20.1666667 25.8125,20.1666667 L3.6875,20.1666667 L3.6875,20.1666667 Z" id="Shape"></path>
                </g>
            </g>
        </g>
    </g>
</svg>