<?xml version="1.0" encoding="UTF-8"?>
<svg width="25px" height="32px" viewBox="0 0 25 32" version="1.1" xmlns="http://www.w3.org/2000/svg" xmlns:xlink="http://www.w3.org/1999/xlink">
    <!-- Generator: Sketch 40.3 (33839) - http://www.bohemiancoding.com/sketch -->
    <title>Artboard</title>
    <desc>Created with Sketch.</desc>
    <defs></defs>
    <g id="Symbols" stroke="none" stroke-width="1" fill="none" fill-rule="evenodd">
        <g id="Artboard" fill="#132862">
            <g id="placeholder-copy">
                <g id="Capa_1">
                    <g id="Group">
                        <path d="M12.529,31.058 C12.285,31.058 12.052,30.958 11.883,30.781 C11.416,30.284 0.431,18.567 0.431,12.098 C0.431,5.427 5.858,0 12.529,0 C19.199,0 24.627,5.427 24.627,12.098 C24.627,18.568 13.643,30.285 13.175,30.781 C13.007,30.958 12.773,31.058 12.529,31.058 L12.529,31.058 Z M12.529,1.774 C6.837,1.774 2.206,6.405 2.206,12.097 C2.206,16.576 9.139,25.132 12.529,28.864 C15.92,25.131 22.852,16.577 22.852,12.097 C22.853,6.405 18.221,1.774 12.529,1.774 L12.529,1.774 Z" id="Shape"></path>
                        <path d="M12.529,15.884 C9.707,15.884 7.412,13.589 7.412,10.767 C7.412,7.946 9.707,5.65 12.529,5.65 C15.35,5.65 17.646,7.946 17.646,10.767 C17.646,13.589 15.351,15.884 12.529,15.884 L12.529,15.884 Z M12.529,7.425 C10.685,7.425 9.186,8.924 9.186,10.767 C9.186,12.611 10.685,14.11 12.529,14.11 C14.372,14.11 15.871,12.611 15.871,10.767 C15.871,8.924 14.372,7.425 12.529,7.425 L12.529,7.425 Z" id="Shape"></path>
                    </g>
                </g>
            </g>
        </g>
    </g>
</svg>