<?xml version="1.0" encoding="UTF-8"?>
<svg width="32px" height="32px" viewBox="0 0 32 32" version="1.1" xmlns="http://www.w3.org/2000/svg" xmlns:xlink="http://www.w3.org/1999/xlink">
    <!-- Generator: Sketch 40.3 (33839) - http://www.bohemiancoding.com/sketch -->
    <title>Artboard 3</title>
    <desc>Created with Sketch.</desc>
    <defs></defs>
    <g id="Symbols" stroke="none" stroke-width="1" fill="none" fill-rule="evenodd">
        <g id="Artboard-3" stroke-width="2" stroke="#132862">
            <g id="phone-receiver-copy" transform="translate(1.000000, 1.000000)">
                <g id="Capa_1">
                    <path d="M29.9393782,23.6744637 C30.0028497,24.1615744 29.8546632,24.5851038 29.4954404,24.9450519 L25.2780311,29.1378374 C25.087772,29.3496021 24.8394301,29.5297578 24.5329016,29.6778374 C24.2263731,29.8261246 23.9251813,29.9214187 23.6293264,29.9637197 C23.6081865,29.9637197 23.5446114,29.9691696 23.4388601,29.9797578 C23.3333161,29.9902941 23.1959067,29.995692 23.0267876,29.995692 C22.6250259,29.995692 21.9749223,29.9268685 21.0764767,29.7891696 C20.1780311,29.6514706 19.0788083,29.3125952 17.7788083,28.772699 C16.4784974,28.232699 15.0040415,27.4225952 13.3551813,26.342699 C11.7063212,25.2628547 9.95165803,23.7803979 8.09134715,21.8956401 C6.6115544,20.4344637 5.38544041,19.0368166 4.41300518,17.7027509 C3.44056995,16.3685813 2.65839378,15.1350519 2.06647668,14.0021107 C1.47450777,12.8691696 1.03056995,11.8421107 0.734611399,10.9209343 C0.43865285,9.99975779 0.237823834,9.20564014 0.132124352,8.53858131 C0.0264248705,7.87152249 -0.0158549223,7.34740484 0.00528497409,6.96622837 C0.0264248705,6.5850519 0.0369948187,6.3732872 0.0369948187,6.33093426 C0.0792746114,6.03446367 0.174404145,5.73269896 0.32238342,5.42564014 C0.470362694,5.11858131 0.650051813,4.86975779 0.861450777,4.67916955 L5.0788601,0.454463668 C5.37481865,0.15799308 5.71305699,0.00975778547 6.09357513,0.00975778547 C6.36839378,0.00975778547 6.61150259,0.0891695502 6.82290155,0.24799308 C7.03430052,0.406816609 7.21398964,0.602698962 7.36196891,0.835640138 L10.7549223,7.28387543 C10.9451813,7.62269896 10.9980311,7.9932872 10.9134715,8.39564014 C10.8289119,8.79799308 10.6492228,9.13681661 10.3744041,9.41211073 L8.82062176,10.9685813 C8.77834197,11.0109343 8.74134715,11.0797578 8.70963731,11.1750519 C8.67792746,11.270346 8.66207254,11.3497578 8.66207254,11.4132872 C8.74663212,11.8579931 8.93689119,12.3662284 9.23284974,12.9379931 C9.4865285,13.4462284 9.87761658,14.0656401 10.406114,14.7962284 C10.9346114,15.5268166 11.6850777,16.3685294 12.657513,17.3214706 C13.6088083,18.295692 14.4544041,19.0526471 15.1943005,19.5927509 C15.9340415,20.1325433 16.5525907,20.5297578 17.0493782,20.7838754 C17.5461658,21.0379931 17.9266839,21.1915225 18.1908808,21.244308 L18.5871503,21.3237716 C18.6294301,21.3237716 18.6982902,21.3078374 18.7933161,21.2761246 C18.8884456,21.244308 18.9571503,21.207301 18.9994819,21.1648962 L20.8068912,19.3225433 C21.1876166,18.9837716 21.6313472,18.8143599 22.1387565,18.8143599 C22.4982383,18.8143599 22.7834715,18.8778374 22.9948705,19.0049481 L23.0265285,19.0049481 L29.1464767,22.6261246 C29.5905699,22.9016263 29.8547668,23.2509343 29.9393782,23.6744637 L29.9393782,23.6744637 Z" id="Shape"></path>
                </g>
            </g>
        </g>
    </g>
</svg>